<svg xmlns="http://www.w3.org/2000/svg" width="960" height="560" viewBox="0 0 960 560">
<rect width="100%" height="100%" fill="#ffffff"/>
<text x="40" y="42" font-family="Inter, -apple-system, BlinkMacSystemFont, Segoe UI, sans-serif" font-size="24" font-weight="700" fill="#0f172a">ListKit Benchmark Sample</text>
<text x="40" y="68" font-family="Inter, -apple-system, BlinkMacSystemFont, Segoe UI, sans-serif" font-size="13" fill="#475569">Median frame/update time in milliseconds. Lower is better. Replace sample-results.csv with your measured data.</text>
<rect x="180" y="82" width="12" height="12" rx="2" fill="#2563eb"/>
<text x="198" y="93" font-family="Inter, -apple-system, BlinkMacSystemFont, Segoe UI, sans-serif" font-size="12" fill="#334155">ListKit</text>
<rect x="330" y="82" width="12" height="12" rx="2" fill="#64748b"/>
<text x="348" y="93" font-family="Inter, -apple-system, BlinkMacSystemFont, Segoe UI, sans-serif" font-size="12" fill="#334155">SwiftUI List</text>
<rect x="480" y="82" width="12" height="12" rx="2" fill="#16a34a"/>
<text x="498" y="93" font-family="Inter, -apple-system, BlinkMacSystemFont, Segoe UI, sans-serif" font-size="12" fill="#334155">LazyVStack</text>
<text x="40" y="153" font-family="Inter, -apple-system, BlinkMacSystemFont, Segoe UI, sans-serif" font-size="14" font-weight="600" fill="#0f172a">Initial load</text>
<rect x="180" y="128" width="521.0" height="16" rx="4" fill="#2563eb"/>
<text x="709.0" y="140" font-family="Inter, -apple-system, BlinkMacSystemFont, Segoe UI, sans-serif" font-size="12" fill="#334155">38.4 ms</text>
<rect x="180" y="151" width="620.0" height="16" rx="4" fill="#64748b"/>
<text x="808.0" y="163" font-family="Inter, -apple-system, BlinkMacSystemFont, Segoe UI, sans-serif" font-size="12" fill="#334155">45.7 ms</text>
<rect x="180" y="174" width="473.5" height="16" rx="4" fill="#16a34a"/>
<text x="661.5" y="186" font-family="Inter, -apple-system, BlinkMacSystemFont, Segoe UI, sans-serif" font-size="12" fill="#334155">34.9 ms</text>
<text x="40" y="249" font-family="Inter, -apple-system, BlinkMacSystemFont, Segoe UI, sans-serif" font-size="14" font-weight="600" fill="#0f172a">Append 250</text>
<rect x="180" y="224" width="146.5" height="16" rx="4" fill="#2563eb"/>
<text x="334.5" y="236" font-family="Inter, -apple-system, BlinkMacSystemFont, Segoe UI, sans-serif" font-size="12" fill="#334155">10.8 ms</text>
<rect x="180" y="247" width="238.8" height="16" rx="4" fill="#64748b"/>
<text x="426.8" y="259" font-family="Inter, -apple-system, BlinkMacSystemFont, Segoe UI, sans-serif" font-size="12" fill="#334155">17.6 ms</text>
<rect x="180" y="270" width="177.7" height="16" rx="4" fill="#16a34a"/>
<text x="365.7" y="282" font-family="Inter, -apple-system, BlinkMacSystemFont, Segoe UI, sans-serif" font-size="12" fill="#334155">13.1 ms</text>
<text x="40" y="345" font-family="Inter, -apple-system, BlinkMacSystemFont, Segoe UI, sans-serif" font-size="14" font-weight="600" fill="#0f172a">Shuffle</text>
<rect x="180" y="320" width="192.6" height="16" rx="4" fill="#2563eb"/>
<text x="380.6" y="332" font-family="Inter, -apple-system, BlinkMacSystemFont, Segoe UI, sans-serif" font-size="12" fill="#334155">14.2 ms</text>
<rect x="180" y="343" width="392.1" height="16" rx="4" fill="#64748b"/>
<text x="580.1" y="355" font-family="Inter, -apple-system, BlinkMacSystemFont, Segoe UI, sans-serif" font-size="12" fill="#334155">28.9 ms</text>
<rect x="180" y="366" width="317.5" height="16" rx="4" fill="#16a34a"/>
<text x="505.5" y="378" font-family="Inter, -apple-system, BlinkMacSystemFont, Segoe UI, sans-serif" font-size="12" fill="#334155">23.4 ms</text>
<text x="40" y="441" font-family="Inter, -apple-system, BlinkMacSystemFont, Segoe UI, sans-serif" font-size="14" font-weight="600" fill="#0f172a">Replace</text>
<rect x="180" y="416" width="305.3" height="16" rx="4" fill="#2563eb"/>
<text x="493.3" y="428" font-family="Inter, -apple-system, BlinkMacSystemFont, Segoe UI, sans-serif" font-size="12" fill="#334155">22.5 ms</text>
<rect x="180" y="439" width="430.1" height="16" rx="4" fill="#64748b"/>
<text x="618.1" y="451" font-family="Inter, -apple-system, BlinkMacSystemFont, Segoe UI, sans-serif" font-size="12" fill="#334155">31.7 ms</text>
<rect x="180" y="462" width="363.6" height="16" rx="4" fill="#16a34a"/>
<text x="551.6" y="474" font-family="Inter, -apple-system, BlinkMacSystemFont, Segoe UI, sans-serif" font-size="12" fill="#334155">26.8 ms</text>
<line x1="180" y1="512" x2="800" y2="512" stroke="#cbd5e1"/>
<line x1="180.0" y1="508" x2="180.0" y2="516" stroke="#cbd5e1"/>
<text x="180.0" y="532" text-anchor="middle" font-family="Inter, -apple-system, BlinkMacSystemFont, Segoe UI, sans-serif" font-size="11" fill="#64748b">0</text>
<line x1="315.7" y1="508" x2="315.7" y2="516" stroke="#cbd5e1"/>
<text x="315.7" y="532" text-anchor="middle" font-family="Inter, -apple-system, BlinkMacSystemFont, Segoe UI, sans-serif" font-size="11" fill="#64748b">10</text>
<line x1="451.3" y1="508" x2="451.3" y2="516" stroke="#cbd5e1"/>
<text x="451.3" y="532" text-anchor="middle" font-family="Inter, -apple-system, BlinkMacSystemFont, Segoe UI, sans-serif" font-size="11" fill="#64748b">20</text>
<line x1="587.0" y1="508" x2="587.0" y2="516" stroke="#cbd5e1"/>
<text x="587.0" y="532" text-anchor="middle" font-family="Inter, -apple-system, BlinkMacSystemFont, Segoe UI, sans-serif" font-size="11" fill="#64748b">30</text>
<line x1="722.7" y1="508" x2="722.7" y2="516" stroke="#cbd5e1"/>
<text x="722.7" y="532" text-anchor="middle" font-family="Inter, -apple-system, BlinkMacSystemFont, Segoe UI, sans-serif" font-size="11" fill="#64748b">40</text>
<line x1="858.3" y1="508" x2="858.3" y2="516" stroke="#cbd5e1"/>
<text x="858.3" y="532" text-anchor="middle" font-family="Inter, -apple-system, BlinkMacSystemFont, Segoe UI, sans-serif" font-size="11" fill="#64748b">50</text>
</svg>