<svg xmlns="http://www.w3.org/2000/svg" width="960" height="676" viewBox="0 0 960 676">
<rect width="100%" height="100%" fill="#ffffff"/>
<text x="40" y="42" font-family="Inter, -apple-system, BlinkMacSystemFont, Segoe UI, sans-serif" font-size="24" font-weight="700" fill="#0f172a">ListKit Benchmark</text>
<text x="40" y="68" font-family="Inter, -apple-system, BlinkMacSystemFont, Segoe UI, sans-serif" font-size="13" fill="#475569">median_ms uses app-side update time for update scenarios and XCTest wall time for scroll. Lower is better.</text>
<rect x="180" y="82" width="12" height="12" rx="2" fill="#0f172a"/>
<text x="198" y="93" font-family="Inter, -apple-system, BlinkMacSystemFont, Segoe UI, sans-serif" font-size="12" fill="#334155">ListKit</text>
<rect x="390" y="82" width="12" height="12" rx="2" fill="#64748b"/>
<text x="408" y="93" font-family="Inter, -apple-system, BlinkMacSystemFont, Segoe UI, sans-serif" font-size="12" fill="#334155">SwiftUI List</text>
<rect x="600" y="82" width="12" height="12" rx="2" fill="#16a34a"/>
<text x="618" y="93" font-family="Inter, -apple-system, BlinkMacSystemFont, Segoe UI, sans-serif" font-size="12" fill="#334155">LazyVStack</text>
<line x1="180" y1="564" x2="800" y2="564" stroke="#cbd5e1"/>
<line x1="180.0" y1="560" x2="180.0" y2="568" stroke="#cbd5e1"/>
<text x="180.0" y="584" text-anchor="middle" font-family="Inter, -apple-system, BlinkMacSystemFont, Segoe UI, sans-serif" font-size="11" fill="#64748b">0</text>
<line x1="304.0" y1="560" x2="304.0" y2="568" stroke="#cbd5e1"/>
<text x="304.0" y="584" text-anchor="middle" font-family="Inter, -apple-system, BlinkMacSystemFont, Segoe UI, sans-serif" font-size="11" fill="#64748b">10</text>
<line x1="428.0" y1="560" x2="428.0" y2="568" stroke="#cbd5e1"/>
<text x="428.0" y="584" text-anchor="middle" font-family="Inter, -apple-system, BlinkMacSystemFont, Segoe UI, sans-serif" font-size="11" fill="#64748b">20</text>
<line x1="552.0" y1="560" x2="552.0" y2="568" stroke="#cbd5e1"/>
<text x="552.0" y="584" text-anchor="middle" font-family="Inter, -apple-system, BlinkMacSystemFont, Segoe UI, sans-serif" font-size="11" fill="#64748b">30</text>
<line x1="676.0" y1="560" x2="676.0" y2="568" stroke="#cbd5e1"/>
<text x="676.0" y="584" text-anchor="middle" font-family="Inter, -apple-system, BlinkMacSystemFont, Segoe UI, sans-serif" font-size="11" fill="#64748b">40</text>
<line x1="800.0" y1="560" x2="800.0" y2="568" stroke="#cbd5e1"/>
<text x="800.0" y="584" text-anchor="middle" font-family="Inter, -apple-system, BlinkMacSystemFont, Segoe UI, sans-serif" font-size="11" fill="#64748b">50</text>
<text x="40" y="153" font-family="Inter, -apple-system, BlinkMacSystemFont, Segoe UI, sans-serif" font-size="14" font-weight="600" fill="#0f172a">Initial load</text>
<rect x="180" y="128" width="476.2" height="16" rx="4" fill="#0f172a"/>
<text x="664.2" y="140" font-family="Inter, -apple-system, BlinkMacSystemFont, Segoe UI, sans-serif" font-size="12" fill="#334155">38.4 ms</text>
<rect x="180" y="151" width="566.7" height="16" rx="4" fill="#64748b"/>
<text x="754.7" y="163" font-family="Inter, -apple-system, BlinkMacSystemFont, Segoe UI, sans-serif" font-size="12" fill="#334155">45.7 ms</text>
<rect x="180" y="174" width="432.8" height="16" rx="4" fill="#16a34a"/>
<text x="620.8" y="186" font-family="Inter, -apple-system, BlinkMacSystemFont, Segoe UI, sans-serif" font-size="12" fill="#334155">34.9 ms</text>
<text x="40" y="269" font-family="Inter, -apple-system, BlinkMacSystemFont, Segoe UI, sans-serif" font-size="14" font-weight="600" fill="#0f172a">Append 250</text>
<rect x="180" y="244" width="133.9" height="16" rx="4" fill="#0f172a"/>
<text x="321.9" y="256" font-family="Inter, -apple-system, BlinkMacSystemFont, Segoe UI, sans-serif" font-size="12" fill="#334155">10.8 ms</text>
<rect x="180" y="267" width="218.2" height="16" rx="4" fill="#64748b"/>
<text x="406.2" y="279" font-family="Inter, -apple-system, BlinkMacSystemFont, Segoe UI, sans-serif" font-size="12" fill="#334155">17.6 ms</text>
<rect x="180" y="290" width="162.4" height="16" rx="4" fill="#16a34a"/>
<text x="350.4" y="302" font-family="Inter, -apple-system, BlinkMacSystemFont, Segoe UI, sans-serif" font-size="12" fill="#334155">13.1 ms</text>
<text x="40" y="385" font-family="Inter, -apple-system, BlinkMacSystemFont, Segoe UI, sans-serif" font-size="14" font-weight="600" fill="#0f172a">Shuffle</text>
<rect x="180" y="360" width="176.1" height="16" rx="4" fill="#0f172a"/>
<text x="364.1" y="372" font-family="Inter, -apple-system, BlinkMacSystemFont, Segoe UI, sans-serif" font-size="12" fill="#334155">14.2 ms</text>
<rect x="180" y="383" width="358.4" height="16" rx="4" fill="#64748b"/>
<text x="546.4" y="395" font-family="Inter, -apple-system, BlinkMacSystemFont, Segoe UI, sans-serif" font-size="12" fill="#334155">28.9 ms</text>
<rect x="180" y="406" width="290.2" height="16" rx="4" fill="#16a34a"/>
<text x="478.2" y="418" font-family="Inter, -apple-system, BlinkMacSystemFont, Segoe UI, sans-serif" font-size="12" fill="#334155">23.4 ms</text>
<text x="40" y="501" font-family="Inter, -apple-system, BlinkMacSystemFont, Segoe UI, sans-serif" font-size="14" font-weight="600" fill="#0f172a">Replace</text>
<rect x="180" y="476" width="279.0" height="16" rx="4" fill="#0f172a"/>
<text x="467.0" y="488" font-family="Inter, -apple-system, BlinkMacSystemFont, Segoe UI, sans-serif" font-size="12" fill="#334155">22.5 ms</text>
<rect x="180" y="499" width="393.1" height="16" rx="4" fill="#64748b"/>
<text x="581.1" y="511" font-family="Inter, -apple-system, BlinkMacSystemFont, Segoe UI, sans-serif" font-size="12" fill="#334155">31.7 ms</text>
<rect x="180" y="522" width="332.3" height="16" rx="4" fill="#16a34a"/>
<text x="520.3" y="534" font-family="Inter, -apple-system, BlinkMacSystemFont, Segoe UI, sans-serif" font-size="12" fill="#334155">26.8 ms</text>
</svg>