<svg xmlns="http://www.w3.org/2000/svg" width="960" height="956" viewBox="0 0 960 956">
<rect width="100%" height="100%" fill="#ffffff"/>
<text x="40" y="42" font-family="Inter, -apple-system, BlinkMacSystemFont, Segoe UI, sans-serif" font-size="24" font-weight="700" fill="#0f172a">ListKit Benchmark</text>
<text x="40" y="68" font-family="Inter, -apple-system, BlinkMacSystemFont, Segoe UI, sans-serif" font-size="13" fill="#475569">median_ms uses app-side update time for update scenarios and XCTest wall time for scroll. Lower is better.</text>
<rect x="180" y="82" width="12" height="12" rx="2" fill="#7c3aed"/>
<text x="198" y="93" font-family="Inter, -apple-system, BlinkMacSystemFont, Segoe UI, sans-serif" font-size="12" fill="#334155">ListKit DifferenceKit</text>
<rect x="390" y="82" width="12" height="12" rx="2" fill="#64748b"/>
<text x="408" y="93" font-family="Inter, -apple-system, BlinkMacSystemFont, Segoe UI, sans-serif" font-size="12" fill="#334155">SwiftUI List</text>
<rect x="600" y="82" width="12" height="12" rx="2" fill="#16a34a"/>
<text x="618" y="93" font-family="Inter, -apple-system, BlinkMacSystemFont, Segoe UI, sans-serif" font-size="12" fill="#334155">LazyVStack</text>
<rect x="180" y="100" width="12" height="12" rx="2" fill="#dc2626"/>
<text x="198" y="111" font-family="Inter, -apple-system, BlinkMacSystemFont, Segoe UI, sans-serif" font-size="12" fill="#334155">UIKit Collection</text>
<line x1="180" y1="676" x2="800" y2="676" stroke="#cbd5e1"/>
<line x1="180.0" y1="672" x2="180.0" y2="680" stroke="#cbd5e1"/>
<text x="180.0" y="696" text-anchor="middle" font-family="Inter, -apple-system, BlinkMacSystemFont, Segoe UI, sans-serif" font-size="11" fill="#64748b">0</text>
<line x1="304.0" y1="672" x2="304.0" y2="680" stroke="#cbd5e1"/>
<text x="304.0" y="696" text-anchor="middle" font-family="Inter, -apple-system, BlinkMacSystemFont, Segoe UI, sans-serif" font-size="11" fill="#64748b">5</text>
<line x1="428.0" y1="672" x2="428.0" y2="680" stroke="#cbd5e1"/>
<text x="428.0" y="696" text-anchor="middle" font-family="Inter, -apple-system, BlinkMacSystemFont, Segoe UI, sans-serif" font-size="11" fill="#64748b">10</text>
<line x1="552.0" y1="672" x2="552.0" y2="680" stroke="#cbd5e1"/>
<text x="552.0" y="696" text-anchor="middle" font-family="Inter, -apple-system, BlinkMacSystemFont, Segoe UI, sans-serif" font-size="11" fill="#64748b">15</text>
<line x1="676.0" y1="672" x2="676.0" y2="680" stroke="#cbd5e1"/>
<text x="676.0" y="696" text-anchor="middle" font-family="Inter, -apple-system, BlinkMacSystemFont, Segoe UI, sans-serif" font-size="11" fill="#64748b">20</text>
<line x1="800.0" y1="672" x2="800.0" y2="680" stroke="#cbd5e1"/>
<text x="800.0" y="696" text-anchor="middle" font-family="Inter, -apple-system, BlinkMacSystemFont, Segoe UI, sans-serif" font-size="11" fill="#64748b">25</text>
<line x1="180" y1="908" x2="800" y2="908" stroke="#cbd5e1"/>
<line x1="180.0" y1="904" x2="180.0" y2="912" stroke="#cbd5e1"/>
<text x="180.0" y="928" text-anchor="middle" font-family="Inter, -apple-system, BlinkMacSystemFont, Segoe UI, sans-serif" font-size="11" fill="#64748b">0</text>
<line x1="304.0" y1="904" x2="304.0" y2="912" stroke="#cbd5e1"/>
<text x="304.0" y="928" text-anchor="middle" font-family="Inter, -apple-system, BlinkMacSystemFont, Segoe UI, sans-serif" font-size="11" fill="#64748b">2000</text>
<line x1="428.0" y1="904" x2="428.0" y2="912" stroke="#cbd5e1"/>
<text x="428.0" y="928" text-anchor="middle" font-family="Inter, -apple-system, BlinkMacSystemFont, Segoe UI, sans-serif" font-size="11" fill="#64748b">4000</text>
<line x1="552.0" y1="904" x2="552.0" y2="912" stroke="#cbd5e1"/>
<text x="552.0" y="928" text-anchor="middle" font-family="Inter, -apple-system, BlinkMacSystemFont, Segoe UI, sans-serif" font-size="11" fill="#64748b">6000</text>
<line x1="676.0" y1="904" x2="676.0" y2="912" stroke="#cbd5e1"/>
<text x="676.0" y="928" text-anchor="middle" font-family="Inter, -apple-system, BlinkMacSystemFont, Segoe UI, sans-serif" font-size="11" fill="#64748b">8000</text>
<line x1="800.0" y1="904" x2="800.0" y2="912" stroke="#cbd5e1"/>
<text x="800.0" y="928" text-anchor="middle" font-family="Inter, -apple-system, BlinkMacSystemFont, Segoe UI, sans-serif" font-size="11" fill="#64748b">10000</text>
<text x="40" y="153" font-family="Inter, -apple-system, BlinkMacSystemFont, Segoe UI, sans-serif" font-size="14" font-weight="600" fill="#0f172a">Initial load</text>
<rect x="180" y="128" width="29.5" height="16" rx="4" fill="#7c3aed"/>
<text x="217.5" y="140" font-family="Inter, -apple-system, BlinkMacSystemFont, Segoe UI, sans-serif" font-size="12" fill="#334155">1.2 ms</text>
<rect x="180" y="151" width="31.0" height="16" rx="4" fill="#64748b"/>
<text x="219.0" y="163" font-family="Inter, -apple-system, BlinkMacSystemFont, Segoe UI, sans-serif" font-size="12" fill="#334155">1.2 ms</text>
<rect x="180" y="174" width="27.2" height="16" rx="4" fill="#16a34a"/>
<text x="215.2" y="186" font-family="Inter, -apple-system, BlinkMacSystemFont, Segoe UI, sans-serif" font-size="12" fill="#334155">1.1 ms</text>
<rect x="180" y="197" width="31.0" height="16" rx="4" fill="#dc2626"/>
<text x="219.0" y="209" font-family="Inter, -apple-system, BlinkMacSystemFont, Segoe UI, sans-serif" font-size="12" fill="#334155">1.3 ms</text>
<text x="40" y="297" font-family="Inter, -apple-system, BlinkMacSystemFont, Segoe UI, sans-serif" font-size="14" font-weight="600" fill="#0f172a">Append 250</text>
<rect x="180" y="272" width="140.5" height="16" rx="4" fill="#7c3aed"/>
<text x="328.5" y="284" font-family="Inter, -apple-system, BlinkMacSystemFont, Segoe UI, sans-serif" font-size="12" fill="#334155">5.7 ms</text>
<rect x="180" y="295" width="128.4" height="16" rx="4" fill="#64748b"/>
<text x="316.4" y="307" font-family="Inter, -apple-system, BlinkMacSystemFont, Segoe UI, sans-serif" font-size="12" fill="#334155">5.2 ms</text>
<rect x="180" y="318" width="84.9" height="16" rx="4" fill="#16a34a"/>
<text x="272.9" y="330" font-family="Inter, -apple-system, BlinkMacSystemFont, Segoe UI, sans-serif" font-size="12" fill="#334155">3.4 ms</text>
<rect x="180" y="341" width="189.2" height="16" rx="4" fill="#dc2626"/>
<text x="377.2" y="353" font-family="Inter, -apple-system, BlinkMacSystemFont, Segoe UI, sans-serif" font-size="12" fill="#334155">7.6 ms</text>
<text x="40" y="441" font-family="Inter, -apple-system, BlinkMacSystemFont, Segoe UI, sans-serif" font-size="14" font-weight="600" fill="#0f172a">Shuffle</text>
<rect x="180" y="416" width="293.5" height="16" rx="4" fill="#7c3aed"/>
<text x="481.5" y="428" font-family="Inter, -apple-system, BlinkMacSystemFont, Segoe UI, sans-serif" font-size="12" fill="#334155">11.8 ms</text>
<rect x="180" y="439" width="521.4" height="16" rx="4" fill="#64748b"/>
<text x="709.4" y="451" font-family="Inter, -apple-system, BlinkMacSystemFont, Segoe UI, sans-serif" font-size="12" fill="#334155">21.0 ms</text>
<rect x="180" y="462" width="408.1" height="16" rx="4" fill="#16a34a"/>
<text x="596.1" y="474" font-family="Inter, -apple-system, BlinkMacSystemFont, Segoe UI, sans-serif" font-size="12" fill="#334155">16.5 ms</text>
<rect x="180" y="485" width="213.0" height="16" rx="4" fill="#dc2626"/>
<text x="401.0" y="497" font-family="Inter, -apple-system, BlinkMacSystemFont, Segoe UI, sans-serif" font-size="12" fill="#334155">8.6 ms</text>
<text x="40" y="585" font-family="Inter, -apple-system, BlinkMacSystemFont, Segoe UI, sans-serif" font-size="14" font-weight="600" fill="#0f172a">Replace</text>
<rect x="180" y="560" width="36.8" height="16" rx="4" fill="#7c3aed"/>
<text x="224.8" y="572" font-family="Inter, -apple-system, BlinkMacSystemFont, Segoe UI, sans-serif" font-size="12" fill="#334155">1.5 ms</text>
<rect x="180" y="583" width="35.9" height="16" rx="4" fill="#64748b"/>
<text x="223.9" y="595" font-family="Inter, -apple-system, BlinkMacSystemFont, Segoe UI, sans-serif" font-size="12" fill="#334155">1.4 ms</text>
<rect x="180" y="606" width="40.4" height="16" rx="4" fill="#16a34a"/>
<text x="228.4" y="618" font-family="Inter, -apple-system, BlinkMacSystemFont, Segoe UI, sans-serif" font-size="12" fill="#334155">1.6 ms</text>
<rect x="180" y="629" width="35.1" height="16" rx="4" fill="#dc2626"/>
<text x="223.1" y="641" font-family="Inter, -apple-system, BlinkMacSystemFont, Segoe UI, sans-serif" font-size="12" fill="#334155">1.4 ms</text>
<text x="40" y="753" font-family="Inter, -apple-system, BlinkMacSystemFont, Segoe UI, sans-serif" font-size="14" font-weight="600" fill="#0f172a">Scroll memory peak</text>
<rect x="180" y="728" width="571.7" height="16" rx="4" fill="#7c3aed"/>
<text x="759.7" y="740" font-family="Inter, -apple-system, BlinkMacSystemFont, Segoe UI, sans-serif" font-size="12" fill="#334155">9221.0 ms</text>
<rect x="180" y="751" width="574.0" height="16" rx="4" fill="#64748b"/>
<text x="762.0" y="763" font-family="Inter, -apple-system, BlinkMacSystemFont, Segoe UI, sans-serif" font-size="12" fill="#334155">9257.6 ms</text>
<rect x="180" y="774" width="581.5" height="16" rx="4" fill="#16a34a"/>
<text x="769.5" y="786" font-family="Inter, -apple-system, BlinkMacSystemFont, Segoe UI, sans-serif" font-size="12" fill="#334155">9379.6 ms</text>
<rect x="180" y="797" width="573.3" height="16" rx="4" fill="#dc2626"/>
<text x="761.3" y="809" font-family="Inter, -apple-system, BlinkMacSystemFont, Segoe UI, sans-serif" font-size="12" fill="#334155">9246.2 ms</text>
</svg>