<svg xmlns="http://www.w3.org/2000/svg" width="960" height="1236" viewBox="0 0 960 1236">
<rect width="100%" height="100%" fill="#ffffff"/>
<text x="40" y="42" font-family="Inter, -apple-system, BlinkMacSystemFont, Segoe UI, sans-serif" font-size="24" font-weight="700" fill="#0f172a">ListKit Benchmark</text>
<text x="40" y="68" font-family="Inter, -apple-system, BlinkMacSystemFont, Segoe UI, sans-serif" font-size="13" fill="#475569">median_ms uses app-side update time for update scenarios and XCTest wall time for scroll. Lower is better.</text>
<rect x="180" y="82" width="12" height="12" rx="2" fill="#2563eb"/>
<text x="198" y="93" font-family="Inter, -apple-system, BlinkMacSystemFont, Segoe UI, sans-serif" font-size="12" fill="#334155">ListKit Diffable</text>
<rect x="390" y="82" width="12" height="12" rx="2" fill="#7c3aed"/>
<text x="408" y="93" font-family="Inter, -apple-system, BlinkMacSystemFont, Segoe UI, sans-serif" font-size="12" fill="#334155">ListKit DifferenceKit</text>
<rect x="600" y="82" width="12" height="12" rx="2" fill="#0891b2"/>
<text x="618" y="93" font-family="Inter, -apple-system, BlinkMacSystemFont, Segoe UI, sans-serif" font-size="12" fill="#334155">ListKit Reload</text>
<rect x="180" y="100" width="12" height="12" rx="2" fill="#64748b"/>
<text x="198" y="111" font-family="Inter, -apple-system, BlinkMacSystemFont, Segoe UI, sans-serif" font-size="12" fill="#334155">SwiftUI List</text>
<rect x="390" y="100" width="12" height="12" rx="2" fill="#16a34a"/>
<text x="408" y="111" font-family="Inter, -apple-system, BlinkMacSystemFont, Segoe UI, sans-serif" font-size="12" fill="#334155">LazyVStack</text>
<rect x="600" y="100" width="12" height="12" rx="2" fill="#dc2626"/>
<text x="618" y="111" font-family="Inter, -apple-system, BlinkMacSystemFont, Segoe UI, sans-serif" font-size="12" fill="#334155">UIKit Collection</text>
<line x1="180" y1="900" x2="800" y2="900" stroke="#cbd5e1"/>
<line x1="180.0" y1="896" x2="180.0" y2="904" stroke="#cbd5e1"/>
<text x="180.0" y="920" text-anchor="middle" font-family="Inter, -apple-system, BlinkMacSystemFont, Segoe UI, sans-serif" font-size="11" fill="#64748b">0</text>
<line x1="335.0" y1="896" x2="335.0" y2="904" stroke="#cbd5e1"/>
<text x="335.0" y="920" text-anchor="middle" font-family="Inter, -apple-system, BlinkMacSystemFont, Segoe UI, sans-serif" font-size="11" fill="#64748b">10</text>
<line x1="490.0" y1="896" x2="490.0" y2="904" stroke="#cbd5e1"/>
<text x="490.0" y="920" text-anchor="middle" font-family="Inter, -apple-system, BlinkMacSystemFont, Segoe UI, sans-serif" font-size="11" fill="#64748b">20</text>
<line x1="645.0" y1="896" x2="645.0" y2="904" stroke="#cbd5e1"/>
<text x="645.0" y="920" text-anchor="middle" font-family="Inter, -apple-system, BlinkMacSystemFont, Segoe UI, sans-serif" font-size="11" fill="#64748b">30</text>
<line x1="800.0" y1="896" x2="800.0" y2="904" stroke="#cbd5e1"/>
<text x="800.0" y="920" text-anchor="middle" font-family="Inter, -apple-system, BlinkMacSystemFont, Segoe UI, sans-serif" font-size="11" fill="#64748b">40</text>
<line x1="180" y1="1188" x2="800" y2="1188" stroke="#cbd5e1"/>
<line x1="180.0" y1="1184" x2="180.0" y2="1192" stroke="#cbd5e1"/>
<text x="180.0" y="1208" text-anchor="middle" font-family="Inter, -apple-system, BlinkMacSystemFont, Segoe UI, sans-serif" font-size="11" fill="#64748b">0</text>
<line x1="386.7" y1="1184" x2="386.7" y2="1192" stroke="#cbd5e1"/>
<text x="386.7" y="1208" text-anchor="middle" font-family="Inter, -apple-system, BlinkMacSystemFont, Segoe UI, sans-serif" font-size="11" fill="#64748b">5000</text>
<line x1="593.3" y1="1184" x2="593.3" y2="1192" stroke="#cbd5e1"/>
<text x="593.3" y="1208" text-anchor="middle" font-family="Inter, -apple-system, BlinkMacSystemFont, Segoe UI, sans-serif" font-size="11" fill="#64748b">10000</text>
<line x1="800.0" y1="1184" x2="800.0" y2="1192" stroke="#cbd5e1"/>
<text x="800.0" y="1208" text-anchor="middle" font-family="Inter, -apple-system, BlinkMacSystemFont, Segoe UI, sans-serif" font-size="11" fill="#64748b">15000</text>
<text x="40" y="153" font-family="Inter, -apple-system, BlinkMacSystemFont, Segoe UI, sans-serif" font-size="14" font-weight="600" fill="#0f172a">Initial load</text>
<rect x="180" y="128" width="23.1" height="16" rx="4" fill="#2563eb"/>
<text x="211.1" y="140" font-family="Inter, -apple-system, BlinkMacSystemFont, Segoe UI, sans-serif" font-size="12" fill="#334155">1.5 ms</text>
<rect x="180" y="151" width="23.4" height="16" rx="4" fill="#7c3aed"/>
<text x="211.4" y="163" font-family="Inter, -apple-system, BlinkMacSystemFont, Segoe UI, sans-serif" font-size="12" fill="#334155">1.5 ms</text>
<rect x="180" y="174" width="24.8" height="16" rx="4" fill="#0891b2"/>
<text x="212.8" y="186" font-family="Inter, -apple-system, BlinkMacSystemFont, Segoe UI, sans-serif" font-size="12" fill="#334155">1.6 ms</text>
<rect x="180" y="197" width="24.2" height="16" rx="4" fill="#64748b"/>
<text x="212.2" y="209" font-family="Inter, -apple-system, BlinkMacSystemFont, Segoe UI, sans-serif" font-size="12" fill="#334155">1.6 ms</text>
<rect x="180" y="220" width="20.1" height="16" rx="4" fill="#16a34a"/>
<text x="208.1" y="232" font-family="Inter, -apple-system, BlinkMacSystemFont, Segoe UI, sans-serif" font-size="12" fill="#334155">1.3 ms</text>
<rect x="180" y="243" width="23.2" height="16" rx="4" fill="#dc2626"/>
<text x="211.2" y="255" font-family="Inter, -apple-system, BlinkMacSystemFont, Segoe UI, sans-serif" font-size="12" fill="#334155">1.5 ms</text>
<text x="40" y="353" font-family="Inter, -apple-system, BlinkMacSystemFont, Segoe UI, sans-serif" font-size="14" font-weight="600" fill="#0f172a">Append 250</text>
<rect x="180" y="328" width="243.1" height="16" rx="4" fill="#2563eb"/>
<text x="431.1" y="340" font-family="Inter, -apple-system, BlinkMacSystemFont, Segoe UI, sans-serif" font-size="12" fill="#334155">15.7 ms</text>
<rect x="180" y="351" width="193.7" height="16" rx="4" fill="#7c3aed"/>
<text x="381.7" y="363" font-family="Inter, -apple-system, BlinkMacSystemFont, Segoe UI, sans-serif" font-size="12" fill="#334155">12.5 ms</text>
<rect x="180" y="374" width="185.8" height="16" rx="4" fill="#0891b2"/>
<text x="373.8" y="386" font-family="Inter, -apple-system, BlinkMacSystemFont, Segoe UI, sans-serif" font-size="12" fill="#334155">12.0 ms</text>
<rect x="180" y="397" width="77.9" height="16" rx="4" fill="#64748b"/>
<text x="265.9" y="409" font-family="Inter, -apple-system, BlinkMacSystemFont, Segoe UI, sans-serif" font-size="12" fill="#334155">5.0 ms</text>
<rect x="180" y="420" width="53.5" height="16" rx="4" fill="#16a34a"/>
<text x="241.5" y="432" font-family="Inter, -apple-system, BlinkMacSystemFont, Segoe UI, sans-serif" font-size="12" fill="#334155">3.5 ms</text>
<rect x="180" y="443" width="120.7" height="16" rx="4" fill="#dc2626"/>
<text x="308.7" y="455" font-family="Inter, -apple-system, BlinkMacSystemFont, Segoe UI, sans-serif" font-size="12" fill="#334155">7.8 ms</text>
<text x="40" y="553" font-family="Inter, -apple-system, BlinkMacSystemFont, Segoe UI, sans-serif" font-size="14" font-weight="600" fill="#0f172a">Shuffle</text>
<rect x="180" y="528" width="596.9" height="16" rx="4" fill="#2563eb"/>
<text x="784.9" y="540" font-family="Inter, -apple-system, BlinkMacSystemFont, Segoe UI, sans-serif" font-size="12" fill="#334155">38.5 ms</text>
<rect x="180" y="551" width="293.9" height="16" rx="4" fill="#7c3aed"/>
<text x="481.9" y="563" font-family="Inter, -apple-system, BlinkMacSystemFont, Segoe UI, sans-serif" font-size="12" fill="#334155">19.0 ms</text>
<rect x="180" y="574" width="200.0" height="16" rx="4" fill="#0891b2"/>
<text x="388.0" y="586" font-family="Inter, -apple-system, BlinkMacSystemFont, Segoe UI, sans-serif" font-size="12" fill="#334155">12.9 ms</text>
<rect x="180" y="597" width="313.9" height="16" rx="4" fill="#64748b"/>
<text x="501.9" y="609" font-family="Inter, -apple-system, BlinkMacSystemFont, Segoe UI, sans-serif" font-size="12" fill="#334155">20.3 ms</text>
<rect x="180" y="620" width="253.3" height="16" rx="4" fill="#16a34a"/>
<text x="441.3" y="632" font-family="Inter, -apple-system, BlinkMacSystemFont, Segoe UI, sans-serif" font-size="12" fill="#334155">16.3 ms</text>
<rect x="180" y="643" width="127.0" height="16" rx="4" fill="#dc2626"/>
<text x="315.0" y="655" font-family="Inter, -apple-system, BlinkMacSystemFont, Segoe UI, sans-serif" font-size="12" fill="#334155">8.2 ms</text>
<text x="40" y="753" font-family="Inter, -apple-system, BlinkMacSystemFont, Segoe UI, sans-serif" font-size="14" font-weight="600" fill="#0f172a">Replace</text>
<rect x="180" y="728" width="25.9" height="16" rx="4" fill="#2563eb"/>
<text x="213.9" y="740" font-family="Inter, -apple-system, BlinkMacSystemFont, Segoe UI, sans-serif" font-size="12" fill="#334155">1.7 ms</text>
<rect x="180" y="751" width="27.7" height="16" rx="4" fill="#7c3aed"/>
<text x="215.7" y="763" font-family="Inter, -apple-system, BlinkMacSystemFont, Segoe UI, sans-serif" font-size="12" fill="#334155">1.8 ms</text>
<rect x="180" y="774" width="26.5" height="16" rx="4" fill="#0891b2"/>
<text x="214.5" y="786" font-family="Inter, -apple-system, BlinkMacSystemFont, Segoe UI, sans-serif" font-size="12" fill="#334155">1.7 ms</text>
<rect x="180" y="797" width="26.6" height="16" rx="4" fill="#64748b"/>
<text x="214.6" y="809" font-family="Inter, -apple-system, BlinkMacSystemFont, Segoe UI, sans-serif" font-size="12" fill="#334155">1.7 ms</text>
<rect x="180" y="820" width="23.7" height="16" rx="4" fill="#16a34a"/>
<text x="211.7" y="832" font-family="Inter, -apple-system, BlinkMacSystemFont, Segoe UI, sans-serif" font-size="12" fill="#334155">1.5 ms</text>
<rect x="180" y="843" width="26.1" height="16" rx="4" fill="#dc2626"/>
<text x="214.1" y="855" font-family="Inter, -apple-system, BlinkMacSystemFont, Segoe UI, sans-serif" font-size="12" fill="#334155">1.7 ms</text>
<text x="40" y="977" font-family="Inter, -apple-system, BlinkMacSystemFont, Segoe UI, sans-serif" font-size="14" font-weight="600" fill="#0f172a">Scroll memory peak</text>
<rect x="180" y="952" width="494.9" height="16" rx="4" fill="#2563eb"/>
<text x="682.9" y="964" font-family="Inter, -apple-system, BlinkMacSystemFont, Segoe UI, sans-serif" font-size="12" fill="#334155">11972.6 ms</text>
<rect x="180" y="975" width="497.1" height="16" rx="4" fill="#7c3aed"/>
<text x="685.1" y="987" font-family="Inter, -apple-system, BlinkMacSystemFont, Segoe UI, sans-serif" font-size="12" fill="#334155">12025.6 ms</text>
<rect x="180" y="998" width="498.9" height="16" rx="4" fill="#0891b2"/>
<text x="686.9" y="1010" font-family="Inter, -apple-system, BlinkMacSystemFont, Segoe UI, sans-serif" font-size="12" fill="#334155">12070.8 ms</text>
<rect x="180" y="1021" width="499.4" height="16" rx="4" fill="#64748b"/>
<text x="687.4" y="1033" font-family="Inter, -apple-system, BlinkMacSystemFont, Segoe UI, sans-serif" font-size="12" fill="#334155">12082.9 ms</text>
<rect x="180" y="1044" width="500.5" height="16" rx="4" fill="#16a34a"/>
<text x="688.5" y="1056" font-family="Inter, -apple-system, BlinkMacSystemFont, Segoe UI, sans-serif" font-size="12" fill="#334155">12109.6 ms</text>
<rect x="180" y="1067" width="503.3" height="16" rx="4" fill="#dc2626"/>
<text x="691.3" y="1079" font-family="Inter, -apple-system, BlinkMacSystemFont, Segoe UI, sans-serif" font-size="12" fill="#334155">12177.3 ms</text>
</svg>