<svg xmlns="http://www.w3.org/2000/svg" width="960" height="1236" viewBox="0 0 960 1236">
<rect width="100%" height="100%" fill="#ffffff"/>
<text x="40" y="42" font-family="Inter, -apple-system, BlinkMacSystemFont, Segoe UI, sans-serif" font-size="24" font-weight="700" fill="#0f172a">ListKit Benchmark</text>
<text x="40" y="68" font-family="Inter, -apple-system, BlinkMacSystemFont, Segoe UI, sans-serif" font-size="13" fill="#475569">median_ms uses app-side update time for update scenarios and XCTest wall time for scroll. Lower is better.</text>
<rect x="180" y="82" width="12" height="12" rx="2" fill="#2563eb"/>
<text x="198" y="93" font-family="Inter, -apple-system, BlinkMacSystemFont, Segoe UI, sans-serif" font-size="12" fill="#334155">ListKit Diffable</text>
<rect x="390" y="82" width="12" height="12" rx="2" fill="#7c3aed"/>
<text x="408" y="93" font-family="Inter, -apple-system, BlinkMacSystemFont, Segoe UI, sans-serif" font-size="12" fill="#334155">ListKit DifferenceKit</text>
<rect x="600" y="82" width="12" height="12" rx="2" fill="#0891b2"/>
<text x="618" y="93" font-family="Inter, -apple-system, BlinkMacSystemFont, Segoe UI, sans-serif" font-size="12" fill="#334155">ListKit Reload</text>
<rect x="180" y="100" width="12" height="12" rx="2" fill="#64748b"/>
<text x="198" y="111" font-family="Inter, -apple-system, BlinkMacSystemFont, Segoe UI, sans-serif" font-size="12" fill="#334155">SwiftUI List</text>
<rect x="390" y="100" width="12" height="12" rx="2" fill="#16a34a"/>
<text x="408" y="111" font-family="Inter, -apple-system, BlinkMacSystemFont, Segoe UI, sans-serif" font-size="12" fill="#334155">LazyVStack</text>
<rect x="600" y="100" width="12" height="12" rx="2" fill="#dc2626"/>
<text x="618" y="111" font-family="Inter, -apple-system, BlinkMacSystemFont, Segoe UI, sans-serif" font-size="12" fill="#334155">UIKit Collection</text>
<line x1="180" y1="900" x2="800" y2="900" stroke="#cbd5e1"/>
<line x1="180.0" y1="896" x2="180.0" y2="904" stroke="#cbd5e1"/>
<text x="180.0" y="920" text-anchor="middle" font-family="Inter, -apple-system, BlinkMacSystemFont, Segoe UI, sans-serif" font-size="11" fill="#64748b">0</text>
<line x1="304.0" y1="896" x2="304.0" y2="904" stroke="#cbd5e1"/>
<text x="304.0" y="920" text-anchor="middle" font-family="Inter, -apple-system, BlinkMacSystemFont, Segoe UI, sans-serif" font-size="11" fill="#64748b">5</text>
<line x1="428.0" y1="896" x2="428.0" y2="904" stroke="#cbd5e1"/>
<text x="428.0" y="920" text-anchor="middle" font-family="Inter, -apple-system, BlinkMacSystemFont, Segoe UI, sans-serif" font-size="11" fill="#64748b">10</text>
<line x1="552.0" y1="896" x2="552.0" y2="904" stroke="#cbd5e1"/>
<text x="552.0" y="920" text-anchor="middle" font-family="Inter, -apple-system, BlinkMacSystemFont, Segoe UI, sans-serif" font-size="11" fill="#64748b">15</text>
<line x1="676.0" y1="896" x2="676.0" y2="904" stroke="#cbd5e1"/>
<text x="676.0" y="920" text-anchor="middle" font-family="Inter, -apple-system, BlinkMacSystemFont, Segoe UI, sans-serif" font-size="11" fill="#64748b">20</text>
<line x1="800.0" y1="896" x2="800.0" y2="904" stroke="#cbd5e1"/>
<text x="800.0" y="920" text-anchor="middle" font-family="Inter, -apple-system, BlinkMacSystemFont, Segoe UI, sans-serif" font-size="11" fill="#64748b">25</text>
<line x1="180" y1="1188" x2="800" y2="1188" stroke="#cbd5e1"/>
<line x1="180.0" y1="1184" x2="180.0" y2="1192" stroke="#cbd5e1"/>
<text x="180.0" y="1208" text-anchor="middle" font-family="Inter, -apple-system, BlinkMacSystemFont, Segoe UI, sans-serif" font-size="11" fill="#64748b">0</text>
<line x1="304.0" y1="1184" x2="304.0" y2="1192" stroke="#cbd5e1"/>
<text x="304.0" y="1208" text-anchor="middle" font-family="Inter, -apple-system, BlinkMacSystemFont, Segoe UI, sans-serif" font-size="11" fill="#64748b">2000</text>
<line x1="428.0" y1="1184" x2="428.0" y2="1192" stroke="#cbd5e1"/>
<text x="428.0" y="1208" text-anchor="middle" font-family="Inter, -apple-system, BlinkMacSystemFont, Segoe UI, sans-serif" font-size="11" fill="#64748b">4000</text>
<line x1="552.0" y1="1184" x2="552.0" y2="1192" stroke="#cbd5e1"/>
<text x="552.0" y="1208" text-anchor="middle" font-family="Inter, -apple-system, BlinkMacSystemFont, Segoe UI, sans-serif" font-size="11" fill="#64748b">6000</text>
<line x1="676.0" y1="1184" x2="676.0" y2="1192" stroke="#cbd5e1"/>
<text x="676.0" y="1208" text-anchor="middle" font-family="Inter, -apple-system, BlinkMacSystemFont, Segoe UI, sans-serif" font-size="11" fill="#64748b">8000</text>
<line x1="800.0" y1="1184" x2="800.0" y2="1192" stroke="#cbd5e1"/>
<text x="800.0" y="1208" text-anchor="middle" font-family="Inter, -apple-system, BlinkMacSystemFont, Segoe UI, sans-serif" font-size="11" fill="#64748b">10000</text>
<text x="40" y="153" font-family="Inter, -apple-system, BlinkMacSystemFont, Segoe UI, sans-serif" font-size="14" font-weight="600" fill="#0f172a">Initial load</text>
<rect x="180" y="128" width="103.6" height="16" rx="4" fill="#2563eb"/>
<text x="291.6" y="140" font-family="Inter, -apple-system, BlinkMacSystemFont, Segoe UI, sans-serif" font-size="12" fill="#334155">4.2 ms</text>
<rect x="180" y="151" width="28.2" height="16" rx="4" fill="#7c3aed"/>
<text x="216.2" y="163" font-family="Inter, -apple-system, BlinkMacSystemFont, Segoe UI, sans-serif" font-size="12" fill="#334155">1.1 ms</text>
<rect x="180" y="174" width="31.3" height="16" rx="4" fill="#0891b2"/>
<text x="219.3" y="186" font-family="Inter, -apple-system, BlinkMacSystemFont, Segoe UI, sans-serif" font-size="12" fill="#334155">1.3 ms</text>
<rect x="180" y="197" width="32.8" height="16" rx="4" fill="#64748b"/>
<text x="220.8" y="209" font-family="Inter, -apple-system, BlinkMacSystemFont, Segoe UI, sans-serif" font-size="12" fill="#334155">1.3 ms</text>
<rect x="180" y="220" width="27.3" height="16" rx="4" fill="#16a34a"/>
<text x="215.3" y="232" font-family="Inter, -apple-system, BlinkMacSystemFont, Segoe UI, sans-serif" font-size="12" fill="#334155">1.1 ms</text>
<rect x="180" y="243" width="30.4" height="16" rx="4" fill="#dc2626"/>
<text x="218.4" y="255" font-family="Inter, -apple-system, BlinkMacSystemFont, Segoe UI, sans-serif" font-size="12" fill="#334155">1.2 ms</text>
<text x="40" y="353" font-family="Inter, -apple-system, BlinkMacSystemFont, Segoe UI, sans-serif" font-size="14" font-weight="600" fill="#0f172a">Append 250</text>
<rect x="180" y="328" width="249.8" height="16" rx="4" fill="#2563eb"/>
<text x="437.8" y="340" font-family="Inter, -apple-system, BlinkMacSystemFont, Segoe UI, sans-serif" font-size="12" fill="#334155">10.1 ms</text>
<rect x="180" y="351" width="129.7" height="16" rx="4" fill="#7c3aed"/>
<text x="317.7" y="363" font-family="Inter, -apple-system, BlinkMacSystemFont, Segoe UI, sans-serif" font-size="12" fill="#334155">5.2 ms</text>
<rect x="180" y="374" width="243.5" height="16" rx="4" fill="#0891b2"/>
<text x="431.5" y="386" font-family="Inter, -apple-system, BlinkMacSystemFont, Segoe UI, sans-serif" font-size="12" fill="#334155">9.8 ms</text>
<rect x="180" y="397" width="121.7" height="16" rx="4" fill="#64748b"/>
<text x="309.7" y="409" font-family="Inter, -apple-system, BlinkMacSystemFont, Segoe UI, sans-serif" font-size="12" fill="#334155">4.9 ms</text>
<rect x="180" y="420" width="79.1" height="16" rx="4" fill="#16a34a"/>
<text x="267.1" y="432" font-family="Inter, -apple-system, BlinkMacSystemFont, Segoe UI, sans-serif" font-size="12" fill="#334155">3.2 ms</text>
<rect x="180" y="443" width="172.7" height="16" rx="4" fill="#dc2626"/>
<text x="360.7" y="455" font-family="Inter, -apple-system, BlinkMacSystemFont, Segoe UI, sans-serif" font-size="12" fill="#334155">7.0 ms</text>
<text x="40" y="553" font-family="Inter, -apple-system, BlinkMacSystemFont, Segoe UI, sans-serif" font-size="14" font-weight="600" fill="#0f172a">Shuffle</text>
<rect x="180" y="528" width="387.2" height="16" rx="4" fill="#2563eb"/>
<text x="575.2" y="540" font-family="Inter, -apple-system, BlinkMacSystemFont, Segoe UI, sans-serif" font-size="12" fill="#334155">15.6 ms</text>
<rect x="180" y="551" width="323.8" height="16" rx="4" fill="#7c3aed"/>
<text x="511.8" y="563" font-family="Inter, -apple-system, BlinkMacSystemFont, Segoe UI, sans-serif" font-size="12" fill="#334155">13.1 ms</text>
<rect x="180" y="574" width="251.6" height="16" rx="4" fill="#0891b2"/>
<text x="439.6" y="586" font-family="Inter, -apple-system, BlinkMacSystemFont, Segoe UI, sans-serif" font-size="12" fill="#334155">10.1 ms</text>
<rect x="180" y="597" width="496.6" height="16" rx="4" fill="#64748b"/>
<text x="684.6" y="609" font-family="Inter, -apple-system, BlinkMacSystemFont, Segoe UI, sans-serif" font-size="12" fill="#334155">20.0 ms</text>
<rect x="180" y="620" width="366.1" height="16" rx="4" fill="#16a34a"/>
<text x="554.1" y="632" font-family="Inter, -apple-system, BlinkMacSystemFont, Segoe UI, sans-serif" font-size="12" fill="#334155">14.8 ms</text>
<rect x="180" y="643" width="200.8" height="16" rx="4" fill="#dc2626"/>
<text x="388.8" y="655" font-family="Inter, -apple-system, BlinkMacSystemFont, Segoe UI, sans-serif" font-size="12" fill="#334155">8.1 ms</text>
<text x="40" y="753" font-family="Inter, -apple-system, BlinkMacSystemFont, Segoe UI, sans-serif" font-size="14" font-weight="600" fill="#0f172a">Replace</text>
<rect x="180" y="728" width="33.1" height="16" rx="4" fill="#2563eb"/>
<text x="221.1" y="740" font-family="Inter, -apple-system, BlinkMacSystemFont, Segoe UI, sans-serif" font-size="12" fill="#334155">1.3 ms</text>
<rect x="180" y="751" width="33.3" height="16" rx="4" fill="#7c3aed"/>
<text x="221.3" y="763" font-family="Inter, -apple-system, BlinkMacSystemFont, Segoe UI, sans-serif" font-size="12" fill="#334155">1.3 ms</text>
<rect x="180" y="774" width="33.8" height="16" rx="4" fill="#0891b2"/>
<text x="221.8" y="786" font-family="Inter, -apple-system, BlinkMacSystemFont, Segoe UI, sans-serif" font-size="12" fill="#334155">1.4 ms</text>
<rect x="180" y="797" width="34.0" height="16" rx="4" fill="#64748b"/>
<text x="222.0" y="809" font-family="Inter, -apple-system, BlinkMacSystemFont, Segoe UI, sans-serif" font-size="12" fill="#334155">1.4 ms</text>
<rect x="180" y="820" width="36.7" height="16" rx="4" fill="#16a34a"/>
<text x="224.7" y="832" font-family="Inter, -apple-system, BlinkMacSystemFont, Segoe UI, sans-serif" font-size="12" fill="#334155">1.5 ms</text>
<rect x="180" y="843" width="34.2" height="16" rx="4" fill="#dc2626"/>
<text x="222.2" y="855" font-family="Inter, -apple-system, BlinkMacSystemFont, Segoe UI, sans-serif" font-size="12" fill="#334155">1.4 ms</text>
<text x="40" y="977" font-family="Inter, -apple-system, BlinkMacSystemFont, Segoe UI, sans-serif" font-size="14" font-weight="600" fill="#0f172a">Scroll memory peak</text>
<rect x="180" y="952" width="572.5" height="16" rx="4" fill="#2563eb"/>
<text x="760.5" y="964" font-family="Inter, -apple-system, BlinkMacSystemFont, Segoe UI, sans-serif" font-size="12" fill="#334155">9234.5 ms</text>
<rect x="180" y="975" width="572.9" height="16" rx="4" fill="#7c3aed"/>
<text x="760.9" y="987" font-family="Inter, -apple-system, BlinkMacSystemFont, Segoe UI, sans-serif" font-size="12" fill="#334155">9241.1 ms</text>
<rect x="180" y="998" width="574.0" height="16" rx="4" fill="#0891b2"/>
<text x="762.0" y="1010" font-family="Inter, -apple-system, BlinkMacSystemFont, Segoe UI, sans-serif" font-size="12" fill="#334155">9257.9 ms</text>
<rect x="180" y="1021" width="575.3" height="16" rx="4" fill="#64748b"/>
<text x="763.3" y="1033" font-family="Inter, -apple-system, BlinkMacSystemFont, Segoe UI, sans-serif" font-size="12" fill="#334155">9278.9 ms</text>
<rect x="180" y="1044" width="580.1" height="16" rx="4" fill="#16a34a"/>
<text x="768.1" y="1056" font-family="Inter, -apple-system, BlinkMacSystemFont, Segoe UI, sans-serif" font-size="12" fill="#334155">9357.3 ms</text>
<rect x="180" y="1067" width="574.5" height="16" rx="4" fill="#dc2626"/>
<text x="762.5" y="1079" font-family="Inter, -apple-system, BlinkMacSystemFont, Segoe UI, sans-serif" font-size="12" fill="#334155">9266.3 ms</text>
</svg>