<svg xmlns="http://www.w3.org/2000/svg" width="960" height="560" viewBox="0 0 960 560">
<rect width="100%" height="100%" fill="#ffffff"/>
<text x="40" y="42" font-family="Inter, -apple-system, BlinkMacSystemFont, Segoe UI, sans-serif" font-size="24" font-weight="700" fill="#0f172a">ListKit Benchmark Sample</text>
<text x="40" y="68" font-family="Inter, -apple-system, BlinkMacSystemFont, Segoe UI, sans-serif" font-size="13" fill="#475569">Median frame/update time in milliseconds. Lower is better. Replace sample-results.csv with your measured data.</text>
<rect x="180" y="82" width="12" height="12" rx="2" fill="#2563eb"/>
<text x="198" y="93" font-family="Inter, -apple-system, BlinkMacSystemFont, Segoe UI, sans-serif" font-size="12" fill="#334155">ListKit</text>
<rect x="330" y="82" width="12" height="12" rx="2" fill="#64748b"/>
<text x="348" y="93" font-family="Inter, -apple-system, BlinkMacSystemFont, Segoe UI, sans-serif" font-size="12" fill="#334155">SwiftUI List</text>
<rect x="480" y="82" width="12" height="12" rx="2" fill="#16a34a"/>
<text x="498" y="93" font-family="Inter, -apple-system, BlinkMacSystemFont, Segoe UI, sans-serif" font-size="12" fill="#334155">LazyVStack</text>
<text x="40" y="153" font-family="Inter, -apple-system, BlinkMacSystemFont, Segoe UI, sans-serif" font-size="14" font-weight="600" fill="#0f172a">Initial load</text>
<rect x="180" y="128" width="516.3" height="16" rx="4" fill="#2563eb"/>
<text x="704.3" y="140" font-family="Inter, -apple-system, BlinkMacSystemFont, Segoe UI, sans-serif" font-size="12" fill="#334155">1393.9 ms</text>
<rect x="180" y="151" width="508.2" height="16" rx="4" fill="#64748b"/>
<text x="696.2" y="163" font-family="Inter, -apple-system, BlinkMacSystemFont, Segoe UI, sans-serif" font-size="12" fill="#334155">1372.0 ms</text>
<rect x="180" y="174" width="509.6" height="16" rx="4" fill="#16a34a"/>
<text x="697.6" y="186" font-family="Inter, -apple-system, BlinkMacSystemFont, Segoe UI, sans-serif" font-size="12" fill="#334155">1376.0 ms</text>
<text x="40" y="249" font-family="Inter, -apple-system, BlinkMacSystemFont, Segoe UI, sans-serif" font-size="14" font-weight="600" fill="#0f172a">Append 250</text>
<rect x="180" y="224" width="620.0" height="16" rx="4" fill="#2563eb"/>
<text x="808.0" y="236" font-family="Inter, -apple-system, BlinkMacSystemFont, Segoe UI, sans-serif" font-size="12" fill="#334155">1673.9 ms</text>
<rect x="180" y="247" width="504.9" height="16" rx="4" fill="#64748b"/>
<text x="692.9" y="259" font-family="Inter, -apple-system, BlinkMacSystemFont, Segoe UI, sans-serif" font-size="12" fill="#334155">1363.3 ms</text>
<rect x="180" y="270" width="507.5" height="16" rx="4" fill="#16a34a"/>
<text x="695.5" y="282" font-family="Inter, -apple-system, BlinkMacSystemFont, Segoe UI, sans-serif" font-size="12" fill="#334155">1370.3 ms</text>
<text x="40" y="345" font-family="Inter, -apple-system, BlinkMacSystemFont, Segoe UI, sans-serif" font-size="14" font-weight="600" fill="#0f172a">Shuffle</text>
<rect x="180" y="320" width="612.3" height="16" rx="4" fill="#2563eb"/>
<text x="800.3" y="332" font-family="Inter, -apple-system, BlinkMacSystemFont, Segoe UI, sans-serif" font-size="12" fill="#334155">1653.3 ms</text>
<rect x="180" y="343" width="515.3" height="16" rx="4" fill="#64748b"/>
<text x="703.3" y="355" font-family="Inter, -apple-system, BlinkMacSystemFont, Segoe UI, sans-serif" font-size="12" fill="#334155">1391.1 ms</text>
<rect x="180" y="366" width="507.5" height="16" rx="4" fill="#16a34a"/>
<text x="695.5" y="378" font-family="Inter, -apple-system, BlinkMacSystemFont, Segoe UI, sans-serif" font-size="12" fill="#334155">1370.3 ms</text>
<text x="40" y="441" font-family="Inter, -apple-system, BlinkMacSystemFont, Segoe UI, sans-serif" font-size="14" font-weight="600" fill="#0f172a">Replace</text>
<rect x="180" y="416" width="510.2" height="16" rx="4" fill="#2563eb"/>
<text x="698.2" y="428" font-family="Inter, -apple-system, BlinkMacSystemFont, Segoe UI, sans-serif" font-size="12" fill="#334155">1377.6 ms</text>
<rect x="180" y="439" width="504.5" height="16" rx="4" fill="#64748b"/>
<text x="692.5" y="451" font-family="Inter, -apple-system, BlinkMacSystemFont, Segoe UI, sans-serif" font-size="12" fill="#334155">1362.0 ms</text>
<rect x="180" y="462" width="507.4" height="16" rx="4" fill="#16a34a"/>
<text x="695.4" y="474" font-family="Inter, -apple-system, BlinkMacSystemFont, Segoe UI, sans-serif" font-size="12" fill="#334155">1370.0 ms</text>
<line x1="180" y1="512" x2="800" y2="512" stroke="#cbd5e1"/>
<line x1="180.0" y1="508" x2="180.0" y2="516" stroke="#cbd5e1"/>
<text x="180.0" y="532" text-anchor="middle" font-family="Inter, -apple-system, BlinkMacSystemFont, Segoe UI, sans-serif" font-size="11" fill="#64748b">0</text>
<line x1="183.7" y1="508" x2="183.7" y2="516" stroke="#cbd5e1"/>
<text x="183.7" y="532" text-anchor="middle" font-family="Inter, -apple-system, BlinkMacSystemFont, Segoe UI, sans-serif" font-size="11" fill="#64748b">10</text>
<line x1="187.4" y1="508" x2="187.4" y2="516" stroke="#cbd5e1"/>
<text x="187.4" y="532" text-anchor="middle" font-family="Inter, -apple-system, BlinkMacSystemFont, Segoe UI, sans-serif" font-size="11" fill="#64748b">20</text>
<line x1="191.1" y1="508" x2="191.1" y2="516" stroke="#cbd5e1"/>
<text x="191.1" y="532" text-anchor="middle" font-family="Inter, -apple-system, BlinkMacSystemFont, Segoe UI, sans-serif" font-size="11" fill="#64748b">30</text>
<line x1="194.8" y1="508" x2="194.8" y2="516" stroke="#cbd5e1"/>
<text x="194.8" y="532" text-anchor="middle" font-family="Inter, -apple-system, BlinkMacSystemFont, Segoe UI, sans-serif" font-size="11" fill="#64748b">40</text>
<line x1="198.5" y1="508" x2="198.5" y2="516" stroke="#cbd5e1"/>
<text x="198.5" y="532" text-anchor="middle" font-family="Inter, -apple-system, BlinkMacSystemFont, Segoe UI, sans-serif" font-size="11" fill="#64748b">50</text>
<line x1="202.2" y1="508" x2="202.2" y2="516" stroke="#cbd5e1"/>
<text x="202.2" y="532" text-anchor="middle" font-family="Inter, -apple-system, BlinkMacSystemFont, Segoe UI, sans-serif" font-size="11" fill="#64748b">60</text>
<line x1="205.9" y1="508" x2="205.9" y2="516" stroke="#cbd5e1"/>
<text x="205.9" y="532" text-anchor="middle" font-family="Inter, -apple-system, BlinkMacSystemFont, Segoe UI, sans-serif" font-size="11" fill="#64748b">70</text>
<line x1="209.6" y1="508" x2="209.6" y2="516" stroke="#cbd5e1"/>
<text x="209.6" y="532" text-anchor="middle" font-family="Inter, -apple-system, BlinkMacSystemFont, Segoe UI, sans-serif" font-size="11" fill="#64748b">80</text>
<line x1="213.3" y1="508" x2="213.3" y2="516" stroke="#cbd5e1"/>
<text x="213.3" y="532" text-anchor="middle" font-family="Inter, -apple-system, BlinkMacSystemFont, Segoe UI, sans-serif" font-size="11" fill="#64748b">90</text>
<line x1="217.0" y1="508" x2="217.0" y2="516" stroke="#cbd5e1"/>
<text x="217.0" y="532" text-anchor="middle" font-family="Inter, -apple-system, BlinkMacSystemFont, Segoe UI, sans-serif" font-size="11" fill="#64748b">100</text>
<line x1="220.7" y1="508" x2="220.7" y2="516" stroke="#cbd5e1"/>
<text x="220.7" y="532" text-anchor="middle" font-family="Inter, -apple-system, BlinkMacSystemFont, Segoe UI, sans-serif" font-size="11" fill="#64748b">110</text>
<line x1="224.4" y1="508" x2="224.4" y2="516" stroke="#cbd5e1"/>
<text x="224.4" y="532" text-anchor="middle" font-family="Inter, -apple-system, BlinkMacSystemFont, Segoe UI, sans-serif" font-size="11" fill="#64748b">120</text>
<line x1="228.1" y1="508" x2="228.1" y2="516" stroke="#cbd5e1"/>
<text x="228.1" y="532" text-anchor="middle" font-family="Inter, -apple-system, BlinkMacSystemFont, Segoe UI, sans-serif" font-size="11" fill="#64748b">130</text>
<line x1="231.9" y1="508" x2="231.9" y2="516" stroke="#cbd5e1"/>
<text x="231.9" y="532" text-anchor="middle" font-family="Inter, -apple-system, BlinkMacSystemFont, Segoe UI, sans-serif" font-size="11" fill="#64748b">140</text>
<line x1="235.6" y1="508" x2="235.6" y2="516" stroke="#cbd5e1"/>
<text x="235.6" y="532" text-anchor="middle" font-family="Inter, -apple-system, BlinkMacSystemFont, Segoe UI, sans-serif" font-size="11" fill="#64748b">150</text>
<line x1="239.3" y1="508" x2="239.3" y2="516" stroke="#cbd5e1"/>
<text x="239.3" y="532" text-anchor="middle" font-family="Inter, -apple-system, BlinkMacSystemFont, Segoe UI, sans-serif" font-size="11" fill="#64748b">160</text>
<line x1="243.0" y1="508" x2="243.0" y2="516" stroke="#cbd5e1"/>
<text x="243.0" y="532" text-anchor="middle" font-family="Inter, -apple-system, BlinkMacSystemFont, Segoe UI, sans-serif" font-size="11" fill="#64748b">170</text>
<line x1="246.7" y1="508" x2="246.7" y2="516" stroke="#cbd5e1"/>
<text x="246.7" y="532" text-anchor="middle" font-family="Inter, -apple-system, BlinkMacSystemFont, Segoe UI, sans-serif" font-size="11" fill="#64748b">180</text>
<line x1="250.4" y1="508" x2="250.4" y2="516" stroke="#cbd5e1"/>
<text x="250.4" y="532" text-anchor="middle" font-family="Inter, -apple-system, BlinkMacSystemFont, Segoe UI, sans-serif" font-size="11" fill="#64748b">190</text>
<line x1="254.1" y1="508" x2="254.1" y2="516" stroke="#cbd5e1"/>
<text x="254.1" y="532" text-anchor="middle" font-family="Inter, -apple-system, BlinkMacSystemFont, Segoe UI, sans-serif" font-size="11" fill="#64748b">200</text>
<line x1="257.8" y1="508" x2="257.8" y2="516" stroke="#cbd5e1"/>
<text x="257.8" y="532" text-anchor="middle" font-family="Inter, -apple-system, BlinkMacSystemFont, Segoe UI, sans-serif" font-size="11" fill="#64748b">210</text>
<line x1="261.5" y1="508" x2="261.5" y2="516" stroke="#cbd5e1"/>
<text x="261.5" y="532" text-anchor="middle" font-family="Inter, -apple-system, BlinkMacSystemFont, Segoe UI, sans-serif" font-size="11" fill="#64748b">220</text>
<line x1="265.2" y1="508" x2="265.2" y2="516" stroke="#cbd5e1"/>
<text x="265.2" y="532" text-anchor="middle" font-family="Inter, -apple-system, BlinkMacSystemFont, Segoe UI, sans-serif" font-size="11" fill="#64748b">230</text>
<line x1="268.9" y1="508" x2="268.9" y2="516" stroke="#cbd5e1"/>
<text x="268.9" y="532" text-anchor="middle" font-family="Inter, -apple-system, BlinkMacSystemFont, Segoe UI, sans-serif" font-size="11" fill="#64748b">240</text>
<line x1="272.6" y1="508" x2="272.6" y2="516" stroke="#cbd5e1"/>
<text x="272.6" y="532" text-anchor="middle" font-family="Inter, -apple-system, BlinkMacSystemFont, Segoe UI, sans-serif" font-size="11" fill="#64748b">250</text>
<line x1="276.3" y1="508" x2="276.3" y2="516" stroke="#cbd5e1"/>
<text x="276.3" y="532" text-anchor="middle" font-family="Inter, -apple-system, BlinkMacSystemFont, Segoe UI, sans-serif" font-size="11" fill="#64748b">260</text>
<line x1="280.0" y1="508" x2="280.0" y2="516" stroke="#cbd5e1"/>
<text x="280.0" y="532" text-anchor="middle" font-family="Inter, -apple-system, BlinkMacSystemFont, Segoe UI, sans-serif" font-size="11" fill="#64748b">270</text>
<line x1="283.7" y1="508" x2="283.7" y2="516" stroke="#cbd5e1"/>
<text x="283.7" y="532" text-anchor="middle" font-family="Inter, -apple-system, BlinkMacSystemFont, Segoe UI, sans-serif" font-size="11" fill="#64748b">280</text>
<line x1="287.4" y1="508" x2="287.4" y2="516" stroke="#cbd5e1"/>
<text x="287.4" y="532" text-anchor="middle" font-family="Inter, -apple-system, BlinkMacSystemFont, Segoe UI, sans-serif" font-size="11" fill="#64748b">290</text>
<line x1="291.1" y1="508" x2="291.1" y2="516" stroke="#cbd5e1"/>
<text x="291.1" y="532" text-anchor="middle" font-family="Inter, -apple-system, BlinkMacSystemFont, Segoe UI, sans-serif" font-size="11" fill="#64748b">300</text>
<line x1="294.8" y1="508" x2="294.8" y2="516" stroke="#cbd5e1"/>
<text x="294.8" y="532" text-anchor="middle" font-family="Inter, -apple-system, BlinkMacSystemFont, Segoe UI, sans-serif" font-size="11" fill="#64748b">310</text>
<line x1="298.5" y1="508" x2="298.5" y2="516" stroke="#cbd5e1"/>
<text x="298.5" y="532" text-anchor="middle" font-family="Inter, -apple-system, BlinkMacSystemFont, Segoe UI, sans-serif" font-size="11" fill="#64748b">320</text>
<line x1="302.2" y1="508" x2="302.2" y2="516" stroke="#cbd5e1"/>
<text x="302.2" y="532" text-anchor="middle" font-family="Inter, -apple-system, BlinkMacSystemFont, Segoe UI, sans-serif" font-size="11" fill="#64748b">330</text>
<line x1="305.9" y1="508" x2="305.9" y2="516" stroke="#cbd5e1"/>
<text x="305.9" y="532" text-anchor="middle" font-family="Inter, -apple-system, BlinkMacSystemFont, Segoe UI, sans-serif" font-size="11" fill="#64748b">340</text>
<line x1="309.6" y1="508" x2="309.6" y2="516" stroke="#cbd5e1"/>
<text x="309.6" y="532" text-anchor="middle" font-family="Inter, -apple-system, BlinkMacSystemFont, Segoe UI, sans-serif" font-size="11" fill="#64748b">350</text>
<line x1="313.3" y1="508" x2="313.3" y2="516" stroke="#cbd5e1"/>
<text x="313.3" y="532" text-anchor="middle" font-family="Inter, -apple-system, BlinkMacSystemFont, Segoe UI, sans-serif" font-size="11" fill="#64748b">360</text>
<line x1="317.0" y1="508" x2="317.0" y2="516" stroke="#cbd5e1"/>
<text x="317.0" y="532" text-anchor="middle" font-family="Inter, -apple-system, BlinkMacSystemFont, Segoe UI, sans-serif" font-size="11" fill="#64748b">370</text>
<line x1="320.7" y1="508" x2="320.7" y2="516" stroke="#cbd5e1"/>
<text x="320.7" y="532" text-anchor="middle" font-family="Inter, -apple-system, BlinkMacSystemFont, Segoe UI, sans-serif" font-size="11" fill="#64748b">380</text>
<line x1="324.4" y1="508" x2="324.4" y2="516" stroke="#cbd5e1"/>
<text x="324.4" y="532" text-anchor="middle" font-family="Inter, -apple-system, BlinkMacSystemFont, Segoe UI, sans-serif" font-size="11" fill="#64748b">390</text>
<line x1="328.2" y1="508" x2="328.2" y2="516" stroke="#cbd5e1"/>
<text x="328.2" y="532" text-anchor="middle" font-family="Inter, -apple-system, BlinkMacSystemFont, Segoe UI, sans-serif" font-size="11" fill="#64748b">400</text>
<line x1="331.9" y1="508" x2="331.9" y2="516" stroke="#cbd5e1"/>
<text x="331.9" y="532" text-anchor="middle" font-family="Inter, -apple-system, BlinkMacSystemFont, Segoe UI, sans-serif" font-size="11" fill="#64748b">410</text>
<line x1="335.6" y1="508" x2="335.6" y2="516" stroke="#cbd5e1"/>
<text x="335.6" y="532" text-anchor="middle" font-family="Inter, -apple-system, BlinkMacSystemFont, Segoe UI, sans-serif" font-size="11" fill="#64748b">420</text>
<line x1="339.3" y1="508" x2="339.3" y2="516" stroke="#cbd5e1"/>
<text x="339.3" y="532" text-anchor="middle" font-family="Inter, -apple-system, BlinkMacSystemFont, Segoe UI, sans-serif" font-size="11" fill="#64748b">430</text>
<line x1="343.0" y1="508" x2="343.0" y2="516" stroke="#cbd5e1"/>
<text x="343.0" y="532" text-anchor="middle" font-family="Inter, -apple-system, BlinkMacSystemFont, Segoe UI, sans-serif" font-size="11" fill="#64748b">440</text>
<line x1="346.7" y1="508" x2="346.7" y2="516" stroke="#cbd5e1"/>
<text x="346.7" y="532" text-anchor="middle" font-family="Inter, -apple-system, BlinkMacSystemFont, Segoe UI, sans-serif" font-size="11" fill="#64748b">450</text>
<line x1="350.4" y1="508" x2="350.4" y2="516" stroke="#cbd5e1"/>
<text x="350.4" y="532" text-anchor="middle" font-family="Inter, -apple-system, BlinkMacSystemFont, Segoe UI, sans-serif" font-size="11" fill="#64748b">460</text>
<line x1="354.1" y1="508" x2="354.1" y2="516" stroke="#cbd5e1"/>
<text x="354.1" y="532" text-anchor="middle" font-family="Inter, -apple-system, BlinkMacSystemFont, Segoe UI, sans-serif" font-size="11" fill="#64748b">470</text>
<line x1="357.8" y1="508" x2="357.8" y2="516" stroke="#cbd5e1"/>
<text x="357.8" y="532" text-anchor="middle" font-family="Inter, -apple-system, BlinkMacSystemFont, Segoe UI, sans-serif" font-size="11" fill="#64748b">480</text>
<line x1="361.5" y1="508" x2="361.5" y2="516" stroke="#cbd5e1"/>
<text x="361.5" y="532" text-anchor="middle" font-family="Inter, -apple-system, BlinkMacSystemFont, Segoe UI, sans-serif" font-size="11" fill="#64748b">490</text>
<line x1="365.2" y1="508" x2="365.2" y2="516" stroke="#cbd5e1"/>
<text x="365.2" y="532" text-anchor="middle" font-family="Inter, -apple-system, BlinkMacSystemFont, Segoe UI, sans-serif" font-size="11" fill="#64748b">500</text>
<line x1="368.9" y1="508" x2="368.9" y2="516" stroke="#cbd5e1"/>
<text x="368.9" y="532" text-anchor="middle" font-family="Inter, -apple-system, BlinkMacSystemFont, Segoe UI, sans-serif" font-size="11" fill="#64748b">510</text>
<line x1="372.6" y1="508" x2="372.6" y2="516" stroke="#cbd5e1"/>
<text x="372.6" y="532" text-anchor="middle" font-family="Inter, -apple-system, BlinkMacSystemFont, Segoe UI, sans-serif" font-size="11" fill="#64748b">520</text>
<line x1="376.3" y1="508" x2="376.3" y2="516" stroke="#cbd5e1"/>
<text x="376.3" y="532" text-anchor="middle" font-family="Inter, -apple-system, BlinkMacSystemFont, Segoe UI, sans-serif" font-size="11" fill="#64748b">530</text>
<line x1="380.0" y1="508" x2="380.0" y2="516" stroke="#cbd5e1"/>
<text x="380.0" y="532" text-anchor="middle" font-family="Inter, -apple-system, BlinkMacSystemFont, Segoe UI, sans-serif" font-size="11" fill="#64748b">540</text>
<line x1="383.7" y1="508" x2="383.7" y2="516" stroke="#cbd5e1"/>
<text x="383.7" y="532" text-anchor="middle" font-family="Inter, -apple-system, BlinkMacSystemFont, Segoe UI, sans-serif" font-size="11" fill="#64748b">550</text>
<line x1="387.4" y1="508" x2="387.4" y2="516" stroke="#cbd5e1"/>
<text x="387.4" y="532" text-anchor="middle" font-family="Inter, -apple-system, BlinkMacSystemFont, Segoe UI, sans-serif" font-size="11" fill="#64748b">560</text>
<line x1="391.1" y1="508" x2="391.1" y2="516" stroke="#cbd5e1"/>
<text x="391.1" y="532" text-anchor="middle" font-family="Inter, -apple-system, BlinkMacSystemFont, Segoe UI, sans-serif" font-size="11" fill="#64748b">570</text>
<line x1="394.8" y1="508" x2="394.8" y2="516" stroke="#cbd5e1"/>
<text x="394.8" y="532" text-anchor="middle" font-family="Inter, -apple-system, BlinkMacSystemFont, Segoe UI, sans-serif" font-size="11" fill="#64748b">580</text>
<line x1="398.5" y1="508" x2="398.5" y2="516" stroke="#cbd5e1"/>
<text x="398.5" y="532" text-anchor="middle" font-family="Inter, -apple-system, BlinkMacSystemFont, Segoe UI, sans-serif" font-size="11" fill="#64748b">590</text>
<line x1="402.2" y1="508" x2="402.2" y2="516" stroke="#cbd5e1"/>
<text x="402.2" y="532" text-anchor="middle" font-family="Inter, -apple-system, BlinkMacSystemFont, Segoe UI, sans-serif" font-size="11" fill="#64748b">600</text>
<line x1="405.9" y1="508" x2="405.9" y2="516" stroke="#cbd5e1"/>
<text x="405.9" y="532" text-anchor="middle" font-family="Inter, -apple-system, BlinkMacSystemFont, Segoe UI, sans-serif" font-size="11" fill="#64748b">610</text>
<line x1="409.6" y1="508" x2="409.6" y2="516" stroke="#cbd5e1"/>
<text x="409.6" y="532" text-anchor="middle" font-family="Inter, -apple-system, BlinkMacSystemFont, Segoe UI, sans-serif" font-size="11" fill="#64748b">620</text>
<line x1="413.3" y1="508" x2="413.3" y2="516" stroke="#cbd5e1"/>
<text x="413.3" y="532" text-anchor="middle" font-family="Inter, -apple-system, BlinkMacSystemFont, Segoe UI, sans-serif" font-size="11" fill="#64748b">630</text>
<line x1="417.0" y1="508" x2="417.0" y2="516" stroke="#cbd5e1"/>
<text x="417.0" y="532" text-anchor="middle" font-family="Inter, -apple-system, BlinkMacSystemFont, Segoe UI, sans-serif" font-size="11" fill="#64748b">640</text>
<line x1="420.7" y1="508" x2="420.7" y2="516" stroke="#cbd5e1"/>
<text x="420.7" y="532" text-anchor="middle" font-family="Inter, -apple-system, BlinkMacSystemFont, Segoe UI, sans-serif" font-size="11" fill="#64748b">650</text>
<line x1="424.5" y1="508" x2="424.5" y2="516" stroke="#cbd5e1"/>
<text x="424.5" y="532" text-anchor="middle" font-family="Inter, -apple-system, BlinkMacSystemFont, Segoe UI, sans-serif" font-size="11" fill="#64748b">660</text>
<line x1="428.2" y1="508" x2="428.2" y2="516" stroke="#cbd5e1"/>
<text x="428.2" y="532" text-anchor="middle" font-family="Inter, -apple-system, BlinkMacSystemFont, Segoe UI, sans-serif" font-size="11" fill="#64748b">670</text>
<line x1="431.9" y1="508" x2="431.9" y2="516" stroke="#cbd5e1"/>
<text x="431.9" y="532" text-anchor="middle" font-family="Inter, -apple-system, BlinkMacSystemFont, Segoe UI, sans-serif" font-size="11" fill="#64748b">680</text>
<line x1="435.6" y1="508" x2="435.6" y2="516" stroke="#cbd5e1"/>
<text x="435.6" y="532" text-anchor="middle" font-family="Inter, -apple-system, BlinkMacSystemFont, Segoe UI, sans-serif" font-size="11" fill="#64748b">690</text>
<line x1="439.3" y1="508" x2="439.3" y2="516" stroke="#cbd5e1"/>
<text x="439.3" y="532" text-anchor="middle" font-family="Inter, -apple-system, BlinkMacSystemFont, Segoe UI, sans-serif" font-size="11" fill="#64748b">700</text>
<line x1="443.0" y1="508" x2="443.0" y2="516" stroke="#cbd5e1"/>
<text x="443.0" y="532" text-anchor="middle" font-family="Inter, -apple-system, BlinkMacSystemFont, Segoe UI, sans-serif" font-size="11" fill="#64748b">710</text>
<line x1="446.7" y1="508" x2="446.7" y2="516" stroke="#cbd5e1"/>
<text x="446.7" y="532" text-anchor="middle" font-family="Inter, -apple-system, BlinkMacSystemFont, Segoe UI, sans-serif" font-size="11" fill="#64748b">720</text>
<line x1="450.4" y1="508" x2="450.4" y2="516" stroke="#cbd5e1"/>
<text x="450.4" y="532" text-anchor="middle" font-family="Inter, -apple-system, BlinkMacSystemFont, Segoe UI, sans-serif" font-size="11" fill="#64748b">730</text>
<line x1="454.1" y1="508" x2="454.1" y2="516" stroke="#cbd5e1"/>
<text x="454.1" y="532" text-anchor="middle" font-family="Inter, -apple-system, BlinkMacSystemFont, Segoe UI, sans-serif" font-size="11" fill="#64748b">740</text>
<line x1="457.8" y1="508" x2="457.8" y2="516" stroke="#cbd5e1"/>
<text x="457.8" y="532" text-anchor="middle" font-family="Inter, -apple-system, BlinkMacSystemFont, Segoe UI, sans-serif" font-size="11" fill="#64748b">750</text>
<line x1="461.5" y1="508" x2="461.5" y2="516" stroke="#cbd5e1"/>
<text x="461.5" y="532" text-anchor="middle" font-family="Inter, -apple-system, BlinkMacSystemFont, Segoe UI, sans-serif" font-size="11" fill="#64748b">760</text>
<line x1="465.2" y1="508" x2="465.2" y2="516" stroke="#cbd5e1"/>
<text x="465.2" y="532" text-anchor="middle" font-family="Inter, -apple-system, BlinkMacSystemFont, Segoe UI, sans-serif" font-size="11" fill="#64748b">770</text>
<line x1="468.9" y1="508" x2="468.9" y2="516" stroke="#cbd5e1"/>
<text x="468.9" y="532" text-anchor="middle" font-family="Inter, -apple-system, BlinkMacSystemFont, Segoe UI, sans-serif" font-size="11" fill="#64748b">780</text>
<line x1="472.6" y1="508" x2="472.6" y2="516" stroke="#cbd5e1"/>
<text x="472.6" y="532" text-anchor="middle" font-family="Inter, -apple-system, BlinkMacSystemFont, Segoe UI, sans-serif" font-size="11" fill="#64748b">790</text>
<line x1="476.3" y1="508" x2="476.3" y2="516" stroke="#cbd5e1"/>
<text x="476.3" y="532" text-anchor="middle" font-family="Inter, -apple-system, BlinkMacSystemFont, Segoe UI, sans-serif" font-size="11" fill="#64748b">800</text>
<line x1="480.0" y1="508" x2="480.0" y2="516" stroke="#cbd5e1"/>
<text x="480.0" y="532" text-anchor="middle" font-family="Inter, -apple-system, BlinkMacSystemFont, Segoe UI, sans-serif" font-size="11" fill="#64748b">810</text>
<line x1="483.7" y1="508" x2="483.7" y2="516" stroke="#cbd5e1"/>
<text x="483.7" y="532" text-anchor="middle" font-family="Inter, -apple-system, BlinkMacSystemFont, Segoe UI, sans-serif" font-size="11" fill="#64748b">820</text>
<line x1="487.4" y1="508" x2="487.4" y2="516" stroke="#cbd5e1"/>
<text x="487.4" y="532" text-anchor="middle" font-family="Inter, -apple-system, BlinkMacSystemFont, Segoe UI, sans-serif" font-size="11" fill="#64748b">830</text>
<line x1="491.1" y1="508" x2="491.1" y2="516" stroke="#cbd5e1"/>
<text x="491.1" y="532" text-anchor="middle" font-family="Inter, -apple-system, BlinkMacSystemFont, Segoe UI, sans-serif" font-size="11" fill="#64748b">840</text>
<line x1="494.8" y1="508" x2="494.8" y2="516" stroke="#cbd5e1"/>
<text x="494.8" y="532" text-anchor="middle" font-family="Inter, -apple-system, BlinkMacSystemFont, Segoe UI, sans-serif" font-size="11" fill="#64748b">850</text>
<line x1="498.5" y1="508" x2="498.5" y2="516" stroke="#cbd5e1"/>
<text x="498.5" y="532" text-anchor="middle" font-family="Inter, -apple-system, BlinkMacSystemFont, Segoe UI, sans-serif" font-size="11" fill="#64748b">860</text>
<line x1="502.2" y1="508" x2="502.2" y2="516" stroke="#cbd5e1"/>
<text x="502.2" y="532" text-anchor="middle" font-family="Inter, -apple-system, BlinkMacSystemFont, Segoe UI, sans-serif" font-size="11" fill="#64748b">870</text>
<line x1="505.9" y1="508" x2="505.9" y2="516" stroke="#cbd5e1"/>
<text x="505.9" y="532" text-anchor="middle" font-family="Inter, -apple-system, BlinkMacSystemFont, Segoe UI, sans-serif" font-size="11" fill="#64748b">880</text>
<line x1="509.6" y1="508" x2="509.6" y2="516" stroke="#cbd5e1"/>
<text x="509.6" y="532" text-anchor="middle" font-family="Inter, -apple-system, BlinkMacSystemFont, Segoe UI, sans-serif" font-size="11" fill="#64748b">890</text>
<line x1="513.3" y1="508" x2="513.3" y2="516" stroke="#cbd5e1"/>
<text x="513.3" y="532" text-anchor="middle" font-family="Inter, -apple-system, BlinkMacSystemFont, Segoe UI, sans-serif" font-size="11" fill="#64748b">900</text>
<line x1="517.0" y1="508" x2="517.0" y2="516" stroke="#cbd5e1"/>
<text x="517.0" y="532" text-anchor="middle" font-family="Inter, -apple-system, BlinkMacSystemFont, Segoe UI, sans-serif" font-size="11" fill="#64748b">910</text>
<line x1="520.8" y1="508" x2="520.8" y2="516" stroke="#cbd5e1"/>
<text x="520.8" y="532" text-anchor="middle" font-family="Inter, -apple-system, BlinkMacSystemFont, Segoe UI, sans-serif" font-size="11" fill="#64748b">920</text>
<line x1="524.5" y1="508" x2="524.5" y2="516" stroke="#cbd5e1"/>
<text x="524.5" y="532" text-anchor="middle" font-family="Inter, -apple-system, BlinkMacSystemFont, Segoe UI, sans-serif" font-size="11" fill="#64748b">930</text>
<line x1="528.2" y1="508" x2="528.2" y2="516" stroke="#cbd5e1"/>
<text x="528.2" y="532" text-anchor="middle" font-family="Inter, -apple-system, BlinkMacSystemFont, Segoe UI, sans-serif" font-size="11" fill="#64748b">940</text>
<line x1="531.9" y1="508" x2="531.9" y2="516" stroke="#cbd5e1"/>
<text x="531.9" y="532" text-anchor="middle" font-family="Inter, -apple-system, BlinkMacSystemFont, Segoe UI, sans-serif" font-size="11" fill="#64748b">950</text>
<line x1="535.6" y1="508" x2="535.6" y2="516" stroke="#cbd5e1"/>
<text x="535.6" y="532" text-anchor="middle" font-family="Inter, -apple-system, BlinkMacSystemFont, Segoe UI, sans-serif" font-size="11" fill="#64748b">960</text>
<line x1="539.3" y1="508" x2="539.3" y2="516" stroke="#cbd5e1"/>
<text x="539.3" y="532" text-anchor="middle" font-family="Inter, -apple-system, BlinkMacSystemFont, Segoe UI, sans-serif" font-size="11" fill="#64748b">970</text>
<line x1="543.0" y1="508" x2="543.0" y2="516" stroke="#cbd5e1"/>
<text x="543.0" y="532" text-anchor="middle" font-family="Inter, -apple-system, BlinkMacSystemFont, Segoe UI, sans-serif" font-size="11" fill="#64748b">980</text>
<line x1="546.7" y1="508" x2="546.7" y2="516" stroke="#cbd5e1"/>
<text x="546.7" y="532" text-anchor="middle" font-family="Inter, -apple-system, BlinkMacSystemFont, Segoe UI, sans-serif" font-size="11" fill="#64748b">990</text>
<line x1="550.4" y1="508" x2="550.4" y2="516" stroke="#cbd5e1"/>
<text x="550.4" y="532" text-anchor="middle" font-family="Inter, -apple-system, BlinkMacSystemFont, Segoe UI, sans-serif" font-size="11" fill="#64748b">1000</text>
<line x1="554.1" y1="508" x2="554.1" y2="516" stroke="#cbd5e1"/>
<text x="554.1" y="532" text-anchor="middle" font-family="Inter, -apple-system, BlinkMacSystemFont, Segoe UI, sans-serif" font-size="11" fill="#64748b">1010</text>
<line x1="557.8" y1="508" x2="557.8" y2="516" stroke="#cbd5e1"/>
<text x="557.8" y="532" text-anchor="middle" font-family="Inter, -apple-system, BlinkMacSystemFont, Segoe UI, sans-serif" font-size="11" fill="#64748b">1020</text>
<line x1="561.5" y1="508" x2="561.5" y2="516" stroke="#cbd5e1"/>
<text x="561.5" y="532" text-anchor="middle" font-family="Inter, -apple-system, BlinkMacSystemFont, Segoe UI, sans-serif" font-size="11" fill="#64748b">1030</text>
<line x1="565.2" y1="508" x2="565.2" y2="516" stroke="#cbd5e1"/>
<text x="565.2" y="532" text-anchor="middle" font-family="Inter, -apple-system, BlinkMacSystemFont, Segoe UI, sans-serif" font-size="11" fill="#64748b">1040</text>
<line x1="568.9" y1="508" x2="568.9" y2="516" stroke="#cbd5e1"/>
<text x="568.9" y="532" text-anchor="middle" font-family="Inter, -apple-system, BlinkMacSystemFont, Segoe UI, sans-serif" font-size="11" fill="#64748b">1050</text>
<line x1="572.6" y1="508" x2="572.6" y2="516" stroke="#cbd5e1"/>
<text x="572.6" y="532" text-anchor="middle" font-family="Inter, -apple-system, BlinkMacSystemFont, Segoe UI, sans-serif" font-size="11" fill="#64748b">1060</text>
<line x1="576.3" y1="508" x2="576.3" y2="516" stroke="#cbd5e1"/>
<text x="576.3" y="532" text-anchor="middle" font-family="Inter, -apple-system, BlinkMacSystemFont, Segoe UI, sans-serif" font-size="11" fill="#64748b">1070</text>
<line x1="580.0" y1="508" x2="580.0" y2="516" stroke="#cbd5e1"/>
<text x="580.0" y="532" text-anchor="middle" font-family="Inter, -apple-system, BlinkMacSystemFont, Segoe UI, sans-serif" font-size="11" fill="#64748b">1080</text>
<line x1="583.7" y1="508" x2="583.7" y2="516" stroke="#cbd5e1"/>
<text x="583.7" y="532" text-anchor="middle" font-family="Inter, -apple-system, BlinkMacSystemFont, Segoe UI, sans-serif" font-size="11" fill="#64748b">1090</text>
<line x1="587.4" y1="508" x2="587.4" y2="516" stroke="#cbd5e1"/>
<text x="587.4" y="532" text-anchor="middle" font-family="Inter, -apple-system, BlinkMacSystemFont, Segoe UI, sans-serif" font-size="11" fill="#64748b">1100</text>
<line x1="591.1" y1="508" x2="591.1" y2="516" stroke="#cbd5e1"/>
<text x="591.1" y="532" text-anchor="middle" font-family="Inter, -apple-system, BlinkMacSystemFont, Segoe UI, sans-serif" font-size="11" fill="#64748b">1110</text>
<line x1="594.8" y1="508" x2="594.8" y2="516" stroke="#cbd5e1"/>
<text x="594.8" y="532" text-anchor="middle" font-family="Inter, -apple-system, BlinkMacSystemFont, Segoe UI, sans-serif" font-size="11" fill="#64748b">1120</text>
<line x1="598.5" y1="508" x2="598.5" y2="516" stroke="#cbd5e1"/>
<text x="598.5" y="532" text-anchor="middle" font-family="Inter, -apple-system, BlinkMacSystemFont, Segoe UI, sans-serif" font-size="11" fill="#64748b">1130</text>
<line x1="602.2" y1="508" x2="602.2" y2="516" stroke="#cbd5e1"/>
<text x="602.2" y="532" text-anchor="middle" font-family="Inter, -apple-system, BlinkMacSystemFont, Segoe UI, sans-serif" font-size="11" fill="#64748b">1140</text>
<line x1="605.9" y1="508" x2="605.9" y2="516" stroke="#cbd5e1"/>
<text x="605.9" y="532" text-anchor="middle" font-family="Inter, -apple-system, BlinkMacSystemFont, Segoe UI, sans-serif" font-size="11" fill="#64748b">1150</text>
<line x1="609.6" y1="508" x2="609.6" y2="516" stroke="#cbd5e1"/>
<text x="609.6" y="532" text-anchor="middle" font-family="Inter, -apple-system, BlinkMacSystemFont, Segoe UI, sans-serif" font-size="11" fill="#64748b">1160</text>
<line x1="613.3" y1="508" x2="613.3" y2="516" stroke="#cbd5e1"/>
<text x="613.3" y="532" text-anchor="middle" font-family="Inter, -apple-system, BlinkMacSystemFont, Segoe UI, sans-serif" font-size="11" fill="#64748b">1170</text>
<line x1="617.1" y1="508" x2="617.1" y2="516" stroke="#cbd5e1"/>
<text x="617.1" y="532" text-anchor="middle" font-family="Inter, -apple-system, BlinkMacSystemFont, Segoe UI, sans-serif" font-size="11" fill="#64748b">1180</text>
<line x1="620.8" y1="508" x2="620.8" y2="516" stroke="#cbd5e1"/>
<text x="620.8" y="532" text-anchor="middle" font-family="Inter, -apple-system, BlinkMacSystemFont, Segoe UI, sans-serif" font-size="11" fill="#64748b">1190</text>
<line x1="624.5" y1="508" x2="624.5" y2="516" stroke="#cbd5e1"/>
<text x="624.5" y="532" text-anchor="middle" font-family="Inter, -apple-system, BlinkMacSystemFont, Segoe UI, sans-serif" font-size="11" fill="#64748b">1200</text>
<line x1="628.2" y1="508" x2="628.2" y2="516" stroke="#cbd5e1"/>
<text x="628.2" y="532" text-anchor="middle" font-family="Inter, -apple-system, BlinkMacSystemFont, Segoe UI, sans-serif" font-size="11" fill="#64748b">1210</text>
<line x1="631.9" y1="508" x2="631.9" y2="516" stroke="#cbd5e1"/>
<text x="631.9" y="532" text-anchor="middle" font-family="Inter, -apple-system, BlinkMacSystemFont, Segoe UI, sans-serif" font-size="11" fill="#64748b">1220</text>
<line x1="635.6" y1="508" x2="635.6" y2="516" stroke="#cbd5e1"/>
<text x="635.6" y="532" text-anchor="middle" font-family="Inter, -apple-system, BlinkMacSystemFont, Segoe UI, sans-serif" font-size="11" fill="#64748b">1230</text>
<line x1="639.3" y1="508" x2="639.3" y2="516" stroke="#cbd5e1"/>
<text x="639.3" y="532" text-anchor="middle" font-family="Inter, -apple-system, BlinkMacSystemFont, Segoe UI, sans-serif" font-size="11" fill="#64748b">1240</text>
<line x1="643.0" y1="508" x2="643.0" y2="516" stroke="#cbd5e1"/>
<text x="643.0" y="532" text-anchor="middle" font-family="Inter, -apple-system, BlinkMacSystemFont, Segoe UI, sans-serif" font-size="11" fill="#64748b">1250</text>
<line x1="646.7" y1="508" x2="646.7" y2="516" stroke="#cbd5e1"/>
<text x="646.7" y="532" text-anchor="middle" font-family="Inter, -apple-system, BlinkMacSystemFont, Segoe UI, sans-serif" font-size="11" fill="#64748b">1260</text>
<line x1="650.4" y1="508" x2="650.4" y2="516" stroke="#cbd5e1"/>
<text x="650.4" y="532" text-anchor="middle" font-family="Inter, -apple-system, BlinkMacSystemFont, Segoe UI, sans-serif" font-size="11" fill="#64748b">1270</text>
<line x1="654.1" y1="508" x2="654.1" y2="516" stroke="#cbd5e1"/>
<text x="654.1" y="532" text-anchor="middle" font-family="Inter, -apple-system, BlinkMacSystemFont, Segoe UI, sans-serif" font-size="11" fill="#64748b">1280</text>
<line x1="657.8" y1="508" x2="657.8" y2="516" stroke="#cbd5e1"/>
<text x="657.8" y="532" text-anchor="middle" font-family="Inter, -apple-system, BlinkMacSystemFont, Segoe UI, sans-serif" font-size="11" fill="#64748b">1290</text>
<line x1="661.5" y1="508" x2="661.5" y2="516" stroke="#cbd5e1"/>
<text x="661.5" y="532" text-anchor="middle" font-family="Inter, -apple-system, BlinkMacSystemFont, Segoe UI, sans-serif" font-size="11" fill="#64748b">1300</text>
<line x1="665.2" y1="508" x2="665.2" y2="516" stroke="#cbd5e1"/>
<text x="665.2" y="532" text-anchor="middle" font-family="Inter, -apple-system, BlinkMacSystemFont, Segoe UI, sans-serif" font-size="11" fill="#64748b">1310</text>
<line x1="668.9" y1="508" x2="668.9" y2="516" stroke="#cbd5e1"/>
<text x="668.9" y="532" text-anchor="middle" font-family="Inter, -apple-system, BlinkMacSystemFont, Segoe UI, sans-serif" font-size="11" fill="#64748b">1320</text>
<line x1="672.6" y1="508" x2="672.6" y2="516" stroke="#cbd5e1"/>
<text x="672.6" y="532" text-anchor="middle" font-family="Inter, -apple-system, BlinkMacSystemFont, Segoe UI, sans-serif" font-size="11" fill="#64748b">1330</text>
<line x1="676.3" y1="508" x2="676.3" y2="516" stroke="#cbd5e1"/>
<text x="676.3" y="532" text-anchor="middle" font-family="Inter, -apple-system, BlinkMacSystemFont, Segoe UI, sans-serif" font-size="11" fill="#64748b">1340</text>
<line x1="680.0" y1="508" x2="680.0" y2="516" stroke="#cbd5e1"/>
<text x="680.0" y="532" text-anchor="middle" font-family="Inter, -apple-system, BlinkMacSystemFont, Segoe UI, sans-serif" font-size="11" fill="#64748b">1350</text>
<line x1="683.7" y1="508" x2="683.7" y2="516" stroke="#cbd5e1"/>
<text x="683.7" y="532" text-anchor="middle" font-family="Inter, -apple-system, BlinkMacSystemFont, Segoe UI, sans-serif" font-size="11" fill="#64748b">1360</text>
<line x1="687.4" y1="508" x2="687.4" y2="516" stroke="#cbd5e1"/>
<text x="687.4" y="532" text-anchor="middle" font-family="Inter, -apple-system, BlinkMacSystemFont, Segoe UI, sans-serif" font-size="11" fill="#64748b">1370</text>
<line x1="691.1" y1="508" x2="691.1" y2="516" stroke="#cbd5e1"/>
<text x="691.1" y="532" text-anchor="middle" font-family="Inter, -apple-system, BlinkMacSystemFont, Segoe UI, sans-serif" font-size="11" fill="#64748b">1380</text>
<line x1="694.8" y1="508" x2="694.8" y2="516" stroke="#cbd5e1"/>
<text x="694.8" y="532" text-anchor="middle" font-family="Inter, -apple-system, BlinkMacSystemFont, Segoe UI, sans-serif" font-size="11" fill="#64748b">1390</text>
<line x1="698.5" y1="508" x2="698.5" y2="516" stroke="#cbd5e1"/>
<text x="698.5" y="532" text-anchor="middle" font-family="Inter, -apple-system, BlinkMacSystemFont, Segoe UI, sans-serif" font-size="11" fill="#64748b">1400</text>
<line x1="702.2" y1="508" x2="702.2" y2="516" stroke="#cbd5e1"/>
<text x="702.2" y="532" text-anchor="middle" font-family="Inter, -apple-system, BlinkMacSystemFont, Segoe UI, sans-serif" font-size="11" fill="#64748b">1410</text>
<line x1="705.9" y1="508" x2="705.9" y2="516" stroke="#cbd5e1"/>
<text x="705.9" y="532" text-anchor="middle" font-family="Inter, -apple-system, BlinkMacSystemFont, Segoe UI, sans-serif" font-size="11" fill="#64748b">1420</text>
<line x1="709.6" y1="508" x2="709.6" y2="516" stroke="#cbd5e1"/>
<text x="709.6" y="532" text-anchor="middle" font-family="Inter, -apple-system, BlinkMacSystemFont, Segoe UI, sans-serif" font-size="11" fill="#64748b">1430</text>
<line x1="713.4" y1="508" x2="713.4" y2="516" stroke="#cbd5e1"/>
<text x="713.4" y="532" text-anchor="middle" font-family="Inter, -apple-system, BlinkMacSystemFont, Segoe UI, sans-serif" font-size="11" fill="#64748b">1440</text>
<line x1="717.1" y1="508" x2="717.1" y2="516" stroke="#cbd5e1"/>
<text x="717.1" y="532" text-anchor="middle" font-family="Inter, -apple-system, BlinkMacSystemFont, Segoe UI, sans-serif" font-size="11" fill="#64748b">1450</text>
<line x1="720.8" y1="508" x2="720.8" y2="516" stroke="#cbd5e1"/>
<text x="720.8" y="532" text-anchor="middle" font-family="Inter, -apple-system, BlinkMacSystemFont, Segoe UI, sans-serif" font-size="11" fill="#64748b">1460</text>
<line x1="724.5" y1="508" x2="724.5" y2="516" stroke="#cbd5e1"/>
<text x="724.5" y="532" text-anchor="middle" font-family="Inter, -apple-system, BlinkMacSystemFont, Segoe UI, sans-serif" font-size="11" fill="#64748b">1470</text>
<line x1="728.2" y1="508" x2="728.2" y2="516" stroke="#cbd5e1"/>
<text x="728.2" y="532" text-anchor="middle" font-family="Inter, -apple-system, BlinkMacSystemFont, Segoe UI, sans-serif" font-size="11" fill="#64748b">1480</text>
<line x1="731.9" y1="508" x2="731.9" y2="516" stroke="#cbd5e1"/>
<text x="731.9" y="532" text-anchor="middle" font-family="Inter, -apple-system, BlinkMacSystemFont, Segoe UI, sans-serif" font-size="11" fill="#64748b">1490</text>
<line x1="735.6" y1="508" x2="735.6" y2="516" stroke="#cbd5e1"/>
<text x="735.6" y="532" text-anchor="middle" font-family="Inter, -apple-system, BlinkMacSystemFont, Segoe UI, sans-serif" font-size="11" fill="#64748b">1500</text>
<line x1="739.3" y1="508" x2="739.3" y2="516" stroke="#cbd5e1"/>
<text x="739.3" y="532" text-anchor="middle" font-family="Inter, -apple-system, BlinkMacSystemFont, Segoe UI, sans-serif" font-size="11" fill="#64748b">1510</text>
<line x1="743.0" y1="508" x2="743.0" y2="516" stroke="#cbd5e1"/>
<text x="743.0" y="532" text-anchor="middle" font-family="Inter, -apple-system, BlinkMacSystemFont, Segoe UI, sans-serif" font-size="11" fill="#64748b">1520</text>
<line x1="746.7" y1="508" x2="746.7" y2="516" stroke="#cbd5e1"/>
<text x="746.7" y="532" text-anchor="middle" font-family="Inter, -apple-system, BlinkMacSystemFont, Segoe UI, sans-serif" font-size="11" fill="#64748b">1530</text>
<line x1="750.4" y1="508" x2="750.4" y2="516" stroke="#cbd5e1"/>
<text x="750.4" y="532" text-anchor="middle" font-family="Inter, -apple-system, BlinkMacSystemFont, Segoe UI, sans-serif" font-size="11" fill="#64748b">1540</text>
<line x1="754.1" y1="508" x2="754.1" y2="516" stroke="#cbd5e1"/>
<text x="754.1" y="532" text-anchor="middle" font-family="Inter, -apple-system, BlinkMacSystemFont, Segoe UI, sans-serif" font-size="11" fill="#64748b">1550</text>
<line x1="757.8" y1="508" x2="757.8" y2="516" stroke="#cbd5e1"/>
<text x="757.8" y="532" text-anchor="middle" font-family="Inter, -apple-system, BlinkMacSystemFont, Segoe UI, sans-serif" font-size="11" fill="#64748b">1560</text>
<line x1="761.5" y1="508" x2="761.5" y2="516" stroke="#cbd5e1"/>
<text x="761.5" y="532" text-anchor="middle" font-family="Inter, -apple-system, BlinkMacSystemFont, Segoe UI, sans-serif" font-size="11" fill="#64748b">1570</text>
<line x1="765.2" y1="508" x2="765.2" y2="516" stroke="#cbd5e1"/>
<text x="765.2" y="532" text-anchor="middle" font-family="Inter, -apple-system, BlinkMacSystemFont, Segoe UI, sans-serif" font-size="11" fill="#64748b">1580</text>
<line x1="768.9" y1="508" x2="768.9" y2="516" stroke="#cbd5e1"/>
<text x="768.9" y="532" text-anchor="middle" font-family="Inter, -apple-system, BlinkMacSystemFont, Segoe UI, sans-serif" font-size="11" fill="#64748b">1590</text>
<line x1="772.6" y1="508" x2="772.6" y2="516" stroke="#cbd5e1"/>
<text x="772.6" y="532" text-anchor="middle" font-family="Inter, -apple-system, BlinkMacSystemFont, Segoe UI, sans-serif" font-size="11" fill="#64748b">1600</text>
<line x1="776.3" y1="508" x2="776.3" y2="516" stroke="#cbd5e1"/>
<text x="776.3" y="532" text-anchor="middle" font-family="Inter, -apple-system, BlinkMacSystemFont, Segoe UI, sans-serif" font-size="11" fill="#64748b">1610</text>
<line x1="780.0" y1="508" x2="780.0" y2="516" stroke="#cbd5e1"/>
<text x="780.0" y="532" text-anchor="middle" font-family="Inter, -apple-system, BlinkMacSystemFont, Segoe UI, sans-serif" font-size="11" fill="#64748b">1620</text>
<line x1="783.7" y1="508" x2="783.7" y2="516" stroke="#cbd5e1"/>
<text x="783.7" y="532" text-anchor="middle" font-family="Inter, -apple-system, BlinkMacSystemFont, Segoe UI, sans-serif" font-size="11" fill="#64748b">1630</text>
<line x1="787.4" y1="508" x2="787.4" y2="516" stroke="#cbd5e1"/>
<text x="787.4" y="532" text-anchor="middle" font-family="Inter, -apple-system, BlinkMacSystemFont, Segoe UI, sans-serif" font-size="11" fill="#64748b">1640</text>
<line x1="791.1" y1="508" x2="791.1" y2="516" stroke="#cbd5e1"/>
<text x="791.1" y="532" text-anchor="middle" font-family="Inter, -apple-system, BlinkMacSystemFont, Segoe UI, sans-serif" font-size="11" fill="#64748b">1650</text>
<line x1="794.8" y1="508" x2="794.8" y2="516" stroke="#cbd5e1"/>
<text x="794.8" y="532" text-anchor="middle" font-family="Inter, -apple-system, BlinkMacSystemFont, Segoe UI, sans-serif" font-size="11" fill="#64748b">1660</text>
<line x1="798.5" y1="508" x2="798.5" y2="516" stroke="#cbd5e1"/>
<text x="798.5" y="532" text-anchor="middle" font-family="Inter, -apple-system, BlinkMacSystemFont, Segoe UI, sans-serif" font-size="11" fill="#64748b">1670</text>
<line x1="802.2" y1="508" x2="802.2" y2="516" stroke="#cbd5e1"/>
<text x="802.2" y="532" text-anchor="middle" font-family="Inter, -apple-system, BlinkMacSystemFont, Segoe UI, sans-serif" font-size="11" fill="#64748b">1680</text>
</svg>